<svg xmlns="http://www.w3.org/2000/svg" xmlns:xlink="http://www.w3.org/1999/xlink" width="500" zoomAndPan="magnify" viewBox="0 0 375 374.999991" height="500" preserveAspectRatio="xMidYMid meet" version="1.0"><path fill="#ffffff" d="M 275.449219 215.683594 C 294.1875 215.683594 309.375 230.871094 309.375 249.609375 L 309.375 262.535156 L 309.277344 262.535156 C 308.636719 277.148438 304.632812 295.476562 288.222656 310.453125 C 270.296875 326.808594 239.351562 337.5 187.5 337.5 C 135.644531 337.5 104.703125 326.808594 86.777344 310.453125 C 70.367188 295.476562 66.363281 277.148438 65.726562 262.535156 L 65.625 262.535156 L 65.625 249.609375 C 65.625 230.871094 80.8125 215.683594 99.550781 215.683594 Z M 275.449219 215.683594 " fill-opacity="1" fill-rule="nonzero"/><path fill="#ffffff" d="M 121.875 56.25 C 106.34375 56.25 93.75 68.84375 93.75 84.375 L 93.75 159.375 C 93.75 174.90625 106.34375 187.5 121.875 187.5 L 253.125 187.5 C 268.65625 187.5 281.25 174.90625 281.25 159.375 L 281.25 84.375 C 281.25 68.84375 268.65625 56.25 253.125 56.25 L 196.875 56.25 C 196.875 56.25 196.875 52.660156 196.875 46.875 C 196.875 41.089844 192.675781 37.5 187.5 37.5 C 182.324219 37.5 178.125 41.820312 178.125 46.875 C 178.125 51.929688 178.125 56.25 178.125 56.25 Z M 131.25 121.875 C 131.25 111.519531 139.644531 103.125 150 103.125 C 160.355469 103.125 168.75 111.519531 168.75 121.875 C 168.75 132.230469 160.355469 140.625 150 140.625 C 139.644531 140.625 131.25 132.230469 131.25 121.875 Z M 206.25 121.875 C 206.25 111.519531 214.644531 103.125 225 103.125 C 235.355469 103.125 243.75 111.519531 243.75 121.875 C 243.75 132.230469 235.355469 140.625 225 140.625 C 214.644531 140.625 206.25 132.230469 206.25 121.875 Z M 206.25 121.875 " fill-opacity="1" fill-rule="nonzero"/></svg>