<svg xmlns="http://www.w3.org/2000/svg" xmlns:xlink="http://www.w3.org/1999/xlink" width="500" zoomAndPan="magnify" viewBox="0 0 375 374.999991" height="500" preserveAspectRatio="xMidYMid meet" version="1.0"><path fill="#ffffff" d="M 110.597656 302.84375 L 293.246094 302.84375 C 293.875 302.84375 294.503906 302.78125 295.121094 302.660156 C 295.738281 302.535156 296.339844 302.355469 296.925781 302.113281 C 297.507812 301.871094 298.0625 301.574219 298.585938 301.222656 C 299.109375 300.875 299.597656 300.472656 300.042969 300.027344 C 300.488281 299.582031 300.886719 299.097656 301.238281 298.570312 C 301.589844 298.046875 301.886719 297.492188 302.128906 296.910156 C 302.367188 296.328125 302.550781 295.726562 302.675781 295.105469 C 302.796875 294.488281 302.859375 293.863281 302.859375 293.230469 C 302.859375 292.601562 302.796875 291.972656 302.675781 291.355469 C 302.550781 290.738281 302.367188 290.136719 302.128906 289.550781 C 301.886719 288.96875 301.589844 288.414062 301.238281 287.890625 C 300.886719 287.367188 300.488281 286.878906 300.042969 286.433594 C 299.597656 285.988281 299.109375 285.589844 298.585938 285.238281 C 298.0625 284.886719 297.507812 284.589844 296.925781 284.347656 C 296.339844 284.109375 295.738281 283.925781 295.121094 283.800781 C 294.503906 283.679688 293.875 283.617188 293.246094 283.617188 L 110.597656 283.617188 C 109.96875 283.617188 109.339844 283.554688 108.722656 283.433594 C 108.105469 283.308594 107.503906 283.128906 106.917969 282.886719 C 106.335938 282.644531 105.78125 282.347656 105.257812 281.996094 C 104.734375 281.648438 104.246094 281.25 103.800781 280.800781 C 103.355469 280.355469 102.957031 279.871094 102.605469 279.34375 C 102.253906 278.820312 101.957031 278.265625 101.714844 277.683594 C 101.476562 277.101562 101.292969 276.5 101.167969 275.878906 C 101.046875 275.261719 100.984375 274.636719 100.984375 274.003906 C 100.984375 273.375 101.046875 272.75 101.167969 272.128906 C 101.292969 271.511719 101.476562 270.910156 101.714844 270.324219 C 101.957031 269.742188 102.253906 269.1875 102.605469 268.664062 C 102.957031 268.140625 103.355469 267.652344 103.800781 267.207031 C 104.246094 266.761719 104.734375 266.363281 105.257812 266.011719 C 105.78125 265.660156 106.335938 265.363281 106.917969 265.125 C 107.503906 264.882812 108.105469 264.699219 108.722656 264.578125 C 109.339844 264.453125 109.96875 264.390625 110.597656 264.390625 L 293.246094 264.390625 C 293.875 264.390625 294.503906 264.332031 295.121094 264.207031 C 295.738281 264.082031 296.339844 263.902344 296.925781 263.660156 C 297.507812 263.417969 298.0625 263.121094 298.585938 262.773438 C 299.109375 262.421875 299.597656 262.023438 300.042969 261.574219 C 300.488281 261.128906 300.886719 260.644531 301.238281 260.121094 C 301.589844 259.59375 301.886719 259.039062 302.128906 258.457031 C 302.367188 257.875 302.550781 257.273438 302.675781 256.652344 C 302.796875 256.035156 302.859375 255.410156 302.859375 254.777344 C 302.859375 254.148438 302.796875 253.523438 302.675781 252.902344 C 302.550781 252.285156 302.367188 251.683594 302.128906 251.101562 C 301.886719 250.515625 301.589844 249.960938 301.238281 249.4375 C 300.886719 248.914062 300.488281 248.425781 300.042969 247.980469 C 299.597656 247.535156 299.109375 247.136719 298.585938 246.785156 C 298.0625 246.433594 297.507812 246.140625 296.925781 245.898438 C 296.339844 245.65625 295.738281 245.472656 295.121094 245.351562 C 294.503906 245.226562 293.875 245.164062 293.246094 245.164062 L 110.597656 245.164062 C 109.339844 245.164062 108.082031 245.226562 106.828125 245.351562 C 105.574219 245.472656 104.332031 245.660156 103.097656 245.90625 C 101.859375 246.148438 100.640625 246.457031 99.4375 246.820312 C 98.230469 247.1875 97.046875 247.609375 95.882812 248.09375 C 94.71875 248.574219 93.582031 249.113281 92.472656 249.707031 C 91.359375 250.300781 90.28125 250.945312 89.234375 251.644531 C 88.1875 252.34375 87.179688 253.09375 86.203125 253.894531 C 85.230469 254.691406 84.296875 255.539062 83.410156 256.429688 C 82.519531 257.320312 81.671875 258.25 80.875 259.222656 C 80.074219 260.199219 79.324219 261.207031 78.625 262.253906 C 77.925781 263.300781 77.28125 264.382812 76.6875 265.492188 C 76.09375 266.601562 75.554688 267.738281 75.074219 268.902344 C 74.589844 270.066406 74.167969 271.25 73.800781 272.457031 C 73.4375 273.660156 73.128906 274.882812 72.882812 276.117188 C 72.640625 277.351562 72.453125 278.59375 72.332031 279.847656 C 72.207031 281.101562 72.144531 282.359375 72.144531 283.617188 L 72.144531 302.84375 C 72.144531 304.101562 72.207031 305.359375 72.332031 306.613281 C 72.453125 307.867188 72.640625 309.109375 72.882812 310.34375 C 73.128906 311.582031 73.4375 312.800781 73.800781 314.007812 C 74.167969 315.210938 74.589844 316.394531 75.074219 317.558594 C 75.554688 318.722656 76.09375 319.859375 76.6875 320.96875 C 77.28125 322.082031 77.925781 323.160156 78.625 324.207031 C 79.324219 325.253906 80.074219 326.265625 80.875 327.238281 C 81.671875 328.210938 82.519531 329.144531 83.410156 330.035156 C 84.296875 330.925781 85.230469 331.769531 86.203125 332.566406 C 87.179688 333.367188 88.1875 334.117188 89.234375 334.816406 C 90.28125 335.515625 91.359375 336.160156 92.472656 336.753906 C 93.582031 337.347656 94.71875 337.886719 95.882812 338.367188 C 97.046875 338.851562 98.230469 339.273438 99.4375 339.640625 C 100.640625 340.007812 101.859375 340.3125 103.097656 340.558594 C 104.332031 340.804688 105.574219 340.988281 106.828125 341.109375 C 108.082031 341.234375 109.339844 341.296875 110.597656 341.296875 L 293.246094 341.296875 C 293.875 341.296875 294.503906 341.234375 295.121094 341.109375 C 295.738281 340.988281 296.339844 340.804688 296.925781 340.5625 C 297.507812 340.324219 298.0625 340.027344 298.585938 339.675781 C 299.109375 339.324219 299.597656 338.925781 300.042969 338.480469 C 300.488281 338.035156 300.886719 337.546875 301.238281 337.023438 C 301.589844 336.5 301.886719 335.945312 302.128906 335.363281 C 302.367188 334.777344 302.550781 334.175781 302.675781 333.558594 C 302.796875 332.9375 302.859375 332.3125 302.859375 331.683594 C 302.859375 331.050781 302.796875 330.425781 302.675781 329.808594 C 302.550781 329.1875 302.367188 328.585938 302.128906 328.003906 C 301.886719 327.421875 301.589844 326.867188 301.238281 326.34375 C 300.886719 325.816406 300.488281 325.332031 300.042969 324.886719 C 299.597656 324.4375 299.109375 324.039062 298.585938 323.691406 C 298.0625 323.339844 297.507812 323.042969 296.925781 322.800781 C 296.339844 322.558594 295.738281 322.378906 295.121094 322.253906 C 294.503906 322.132812 293.875 322.070312 293.246094 322.070312 L 110.597656 322.070312 C 98.011719 321.871094 97.921875 303.097656 110.597656 302.84375 Z M 110.597656 302.84375 " fill-opacity="1" fill-rule="nonzero"/><path fill="#ffffff" d="M 302.855469 216.320312 L 302.855469 43.3125 C 302.855469 42.679688 302.792969 42.054688 302.667969 41.4375 C 302.546875 40.816406 302.363281 40.21875 302.121094 39.632812 C 301.882812 39.050781 301.585938 38.496094 301.234375 37.972656 C 300.882812 37.449219 300.484375 36.964844 300.039062 36.519531 C 299.59375 36.070312 299.109375 35.671875 298.585938 35.324219 C 298.058594 34.972656 297.507812 34.675781 296.921875 34.433594 C 296.339844 34.195312 295.738281 34.011719 295.121094 33.886719 C 294.503906 33.765625 293.878906 33.703125 293.246094 33.703125 L 120.207031 33.703125 L 120.207031 225.941406 L 293.234375 225.941406 C 293.863281 225.941406 294.492188 225.878906 295.109375 225.753906 C 295.730469 225.632812 296.332031 225.449219 296.914062 225.207031 C 297.5 224.964844 298.054688 224.667969 298.578125 224.316406 C 299.101562 223.96875 299.589844 223.570312 300.035156 223.121094 C 300.484375 222.675781 300.882812 222.1875 301.234375 221.664062 C 301.582031 221.136719 301.878906 220.585938 302.121094 220 C 302.363281 219.417969 302.546875 218.816406 302.667969 218.195312 C 302.792969 217.574219 302.855469 216.949219 302.855469 216.320312 Z M 262.800781 149.058594 L 160.261719 149.058594 L 160.261719 84.972656 L 262.800781 84.972656 Z M 262.800781 149.058594 " fill-opacity="1" fill-rule="nonzero"/><path fill="#ffffff" d="M 100.980469 34.964844 C 99.960938 35.226562 98.949219 35.53125 97.953125 35.878906 C 96.953125 36.226562 95.972656 36.613281 95.007812 37.039062 C 94.042969 37.46875 93.097656 37.933594 92.171875 38.441406 C 91.242188 38.945312 90.339844 39.488281 89.457031 40.070312 C 88.574219 40.648438 87.71875 41.265625 86.886719 41.914062 C 86.054688 42.566406 85.25 43.25 84.476562 43.96875 C 83.703125 44.683594 82.957031 45.429688 82.242188 46.210938 C 81.53125 46.988281 80.851562 47.792969 80.203125 48.628906 C 79.554688 49.464844 78.945312 50.324219 78.367188 51.207031 C 77.792969 52.09375 77.253906 53 76.75 53.929688 C 76.25 54.859375 75.789062 55.804688 75.363281 56.773438 C 74.941406 57.742188 74.558594 58.722656 74.214844 59.722656 C 73.875 60.722656 73.574219 61.730469 73.316406 62.757812 C 73.054688 63.78125 72.839844 64.8125 72.664062 65.851562 C 72.492188 66.894531 72.359375 67.941406 72.273438 68.992188 C 72.1875 70.046875 72.140625 71.101562 72.140625 72.15625 L 72.140625 240.699219 C 76.191406 237.0625 80.667969 234.058594 85.574219 231.691406 C 90.476562 229.324219 95.613281 227.6875 100.980469 226.78125 Z M 100.980469 34.964844 " fill-opacity="1" fill-rule="nonzero"/></svg>