<svg xmlns="http://www.w3.org/2000/svg" xmlns:xlink="http://www.w3.org/1999/xlink" width="500" zoomAndPan="magnify" viewBox="0 0 375 374.999991" height="500" preserveAspectRatio="xMidYMid meet" version="1.0"><defs><g/><clipPath id="49f5fb7c32"><path d="M 69.652344 69.652344 L 305.152344 69.652344 L 305.152344 305.152344 L 69.652344 305.152344 Z M 69.652344 69.652344 " clip-rule="nonzero"/></clipPath><clipPath id="b32252d69c"><path d="M 187.496094 69.652344 C 122.414062 69.652344 69.652344 122.414062 69.652344 187.496094 C 69.652344 252.582031 122.414062 305.339844 187.496094 305.339844 C 252.582031 305.339844 305.339844 252.582031 305.339844 187.496094 C 305.339844 122.414062 252.582031 69.652344 187.496094 69.652344 Z M 187.496094 69.652344 " clip-rule="nonzero"/></clipPath><clipPath id="48c25e7400"><path d="M 122.324219 122.324219 L 252.671875 122.324219 L 252.671875 252.671875 L 122.324219 252.671875 Z M 122.324219 122.324219 " clip-rule="nonzero"/></clipPath><clipPath id="b9a2639b08"><path d="M 187.496094 122.324219 C 151.503906 122.324219 122.324219 151.503906 122.324219 187.496094 C 122.324219 223.492188 151.503906 252.671875 187.496094 252.671875 C 223.492188 252.671875 252.671875 223.492188 252.671875 187.496094 C 252.671875 151.503906 223.492188 122.324219 187.496094 122.324219 Z M 187.496094 122.324219 " clip-rule="nonzero"/></clipPath><clipPath id="b1ddb282ac"><path d="M 143.035156 153 L 232 153 L 232 224.816406 L 143.035156 224.816406 Z M 143.035156 153 " clip-rule="nonzero"/></clipPath><clipPath id="91611448ee"><path d="M 137.632812 260.203125 L 152.632812 260.203125 L 152.632812 274.453125 L 137.632812 274.453125 Z M 137.632812 260.203125 " clip-rule="nonzero"/></clipPath><clipPath id="1ff608a218"><path d="M 222.328125 260.203125 L 237.328125 260.203125 L 237.328125 274.453125 L 222.328125 274.453125 Z M 222.328125 260.203125 " clip-rule="nonzero"/></clipPath><clipPath id="0b3d3cc360"><path d="M 180 272.5 L 194.980469 272.5 L 194.980469 286.75 L 180 286.75 Z M 180 272.5 " clip-rule="nonzero"/></clipPath><clipPath id="8db37bc5db"><path d="M 179.980469 272.5 L 194.980469 272.5 L 194.980469 286.75 L 179.980469 286.75 Z M 179.980469 272.5 " clip-rule="nonzero"/></clipPath></defs><g clip-path="url(#49f5fb7c32)"><g clip-path="url(#b32252d69c)"><path stroke-linecap="butt" transform="matrix(0.75, 0, 0, 0.75, 69.653285, 69.65328)" fill="none" stroke-linejoin="miter" d="M 157.123756 -0.00124863 C 70.347708 -0.00124863 -0.00125463 70.347714 -0.00125463 157.123762 C -0.00125463 243.905017 70.347708 314.248772 157.123756 314.248772 C 243.905011 314.248772 314.248766 243.905017 314.248766 157.123762 C 314.248766 70.347714 243.905011 -0.00124863 157.123756 -0.00124863 Z M 157.123756 -0.00124863 " stroke="#ffffff" stroke-width="6" stroke-opacity="1" stroke-miterlimit="4"/></g></g><g fill="#ffffff" fill-opacity="1"><g transform="translate(114.581144, 233.77888)"><g><path d="M -11.296875 -11.515625 L -7.1875 -2.90625 L -1.578125 -3.3125 L -0.5 -1.0625 L -21.703125 0.578125 L -23.203125 -2.5625 L -8.5625 -17.984375 L -7.421875 -15.59375 Z M -12.859375 -9.84375 L -20.421875 -1.890625 L -9.46875 -2.71875 Z M -12.859375 -9.84375 "/></g></g></g><g fill="#ffffff" fill-opacity="1"><g transform="translate(105.147334, 213.136361)"><g><path d="M -20.15625 0.171875 L -21.34375 -6.15625 C -22.257812 -11.007812 -20.585938 -13.835938 -16.328125 -14.640625 C -14.179688 -15.046875 -12.425781 -14.753906 -11.0625 -13.765625 C -9.707031 -12.773438 -8.816406 -11.125 -8.390625 -8.8125 L -7.625 -4.75 L -1.125 -5.96875 L -0.65625 -3.5 Z M -10.671875 -8.296875 C -10.972656 -9.890625 -11.515625 -10.976562 -12.296875 -11.5625 C -13.078125 -12.144531 -14.210938 -12.296875 -15.703125 -12.015625 C -17.203125 -11.734375 -18.203125 -11.179688 -18.703125 -10.359375 C -19.210938 -9.535156 -19.304688 -8.285156 -18.984375 -6.609375 L -18.265625 -2.75 L -9.921875 -4.3125 Z M -10.671875 -8.296875 "/></g></g></g><g fill="#ffffff" fill-opacity="1"><g transform="translate(101.491719, 192.984668)"><g><path d="M 0.984375 -14.90625 L -7.046875 -11.40625 L -7.0625 -11.125 L -7.359375 -6.578125 L 0.40625 -6.0625 L 0.234375 -3.546875 L -19.5625 -4.859375 L -19.109375 -11.578125 C -18.953125 -13.941406 -18.335938 -15.671875 -17.265625 -16.765625 C -16.203125 -17.859375 -14.710938 -18.34375 -12.796875 -18.21875 C -11.367188 -18.125 -10.179688 -17.726562 -9.234375 -17.03125 C -8.296875 -16.34375 -7.65625 -15.378906 -7.3125 -14.140625 L 1.1875 -17.90625 Z M -9.4375 -10.96875 C -9.34375 -12.445312 -9.5625 -13.550781 -10.09375 -14.28125 C -10.625 -15.007812 -11.582031 -15.421875 -12.96875 -15.515625 C -14.238281 -15.597656 -15.15625 -15.3125 -15.71875 -14.65625 C -16.289062 -14 -16.625 -12.921875 -16.71875 -11.421875 L -17 -7.21875 L -9.71875 -6.734375 Z M -9.4375 -10.96875 "/></g></g></g><g fill="#ffffff" fill-opacity="1"><g transform="translate(103.236102, 171.452755)"><g><path d="M -14.6875 -11.1875 L -8.734375 -9.25 L -6.046875 -17.5 L -3.875 -16.78125 L -6.5625 -8.53125 L -0.375 -6.515625 L 2.5 -15.375 L 4.765625 -14.640625 L 1.109375 -3.390625 L -17.75 -9.53125 L -14.09375 -20.78125 L -11.8125 -20.046875 Z M -14.6875 -11.1875 "/></g></g></g><g fill="#ffffff" fill-opacity="1"><g transform="translate(109.31117, 152.527472)"><g><path d="M -6.0625 -26.96875 L 10.53125 -16.09375 L 9.171875 -14 L -9.46875 -13.453125 L 3.328125 -5.078125 L 1.953125 -2.984375 L -14.640625 -13.859375 L -13.265625 -15.953125 L 5.375 -16.484375 L -7.421875 -24.875 Z M -6.0625 -26.96875 "/></g></g></g><g fill="#ffffff" fill-opacity="1"><g transform="translate(122.835245, 132.345072)"><g><path d="M -5.015625 -21.765625 C -2.773438 -23.660156 -0.492188 -24.445312 1.828125 -24.125 C 4.148438 -23.800781 6.316406 -22.453125 8.328125 -20.078125 C 10.347656 -17.703125 11.328125 -15.34375 11.265625 -13 C 11.210938 -10.65625 10.066406 -8.535156 7.828125 -6.640625 L 2.71875 -2.3125 L -10.125 -17.4375 Z M 6.421875 -8.59375 C 7.984375 -9.914062 8.726562 -11.421875 8.65625 -13.109375 C 8.582031 -14.804688 7.785156 -16.546875 6.265625 -18.328125 C 4.753906 -20.109375 3.171875 -21.171875 1.515625 -21.515625 C -0.140625 -21.867188 -1.75 -21.382812 -3.3125 -20.0625 L -6.640625 -17.234375 L 3.09375 -5.765625 Z M 6.421875 -8.59375 "/></g></g></g><g fill="#ffffff" fill-opacity="1"><g transform="translate(141.290637, 117.304964)"><g><path d="M -1.953125 -18.359375 L 0.71875 -12.6875 L 8.5625 -16.40625 L 9.546875 -14.34375 L 1.703125 -10.625 L 4.484375 -4.75 L 12.890625 -8.734375 L 13.90625 -6.578125 L 3.21875 -1.53125 L -5.265625 -19.46875 L 5.421875 -24.515625 L 6.453125 -22.34375 Z M -1.953125 -18.359375 "/></g></g></g><g fill="#ffffff" fill-opacity="1"><g transform="translate(159.821098, 109.248556)"><g/></g></g><g fill="#ffffff" fill-opacity="1"><g transform="translate(169.435321, 106.396143)"><g><path d="M 9.296875 -0.390625 C 8.191406 -0.304688 7.03125 -0.359375 5.8125 -0.546875 C 4.59375 -0.734375 3.441406 -1.03125 2.359375 -1.4375 L 2.140625 -4.140625 C 3.429688 -3.554688 4.625 -3.144531 5.71875 -2.90625 C 6.8125 -2.675781 7.882812 -2.601562 8.9375 -2.6875 C 10.25 -2.789062 11.238281 -3.160156 11.90625 -3.796875 C 12.570312 -4.441406 12.863281 -5.273438 12.78125 -6.296875 C 12.726562 -7.003906 12.488281 -7.578125 12.0625 -8.015625 C 11.632812 -8.453125 11.101562 -8.789062 10.46875 -9.03125 C 9.84375 -9.269531 9 -9.519531 7.9375 -9.78125 C 6.6875 -10.101562 5.671875 -10.421875 4.890625 -10.734375 C 4.109375 -11.054688 3.421875 -11.546875 2.828125 -12.203125 C 2.242188 -12.859375 1.910156 -13.742188 1.828125 -14.859375 C 1.691406 -16.535156 2.191406 -17.914062 3.328125 -19 C 4.460938 -20.082031 6.050781 -20.707031 8.09375 -20.875 C 10.082031 -21.03125 11.945312 -20.75 13.6875 -20.03125 L 13.890625 -17.4375 C 11.929688 -18.332031 10.0625 -18.710938 8.28125 -18.578125 C 6.96875 -18.472656 5.960938 -18.128906 5.265625 -17.546875 C 4.578125 -16.972656 4.269531 -16.234375 4.34375 -15.328125 C 4.382812 -14.703125 4.613281 -14.191406 5.03125 -13.796875 C 5.445312 -13.410156 5.9375 -13.113281 6.5 -12.90625 C 7.070312 -12.695312 7.867188 -12.453125 8.890625 -12.171875 C 10.191406 -11.847656 11.253906 -11.519531 12.078125 -11.1875 C 12.898438 -10.851562 13.617188 -10.332031 14.234375 -9.625 C 14.847656 -8.914062 15.203125 -7.960938 15.296875 -6.765625 C 15.390625 -5.585938 15.203125 -4.535156 14.734375 -3.609375 C 14.273438 -2.691406 13.578125 -1.953125 12.640625 -1.390625 C 11.703125 -0.828125 10.585938 -0.492188 9.296875 -0.390625 Z M 9.296875 -0.390625 "/></g></g></g><g fill="#ffffff" fill-opacity="1"><g transform="translate(189.585007, 105.414497)"><g><path d="M 5.453125 -19.359375 L 7.9375 -19.09375 L 5.78125 0.625 L 3.296875 0.359375 Z M 5.453125 -19.359375 "/></g></g></g><g fill="#ffffff" fill-opacity="1"><g transform="translate(200.614403, 106.090214)"><g><path d="M 24.53125 -12.71875 L 18.234375 6.09375 L 15.875 5.3125 L 10.609375 -12.578125 L 5.765625 1.921875 L 3.375 1.125 L 9.671875 -17.6875 L 12.0625 -16.890625 L 17.3125 1.015625 L 22.171875 -13.5 Z M 24.53125 -12.71875 "/></g></g></g><g fill="#ffffff" fill-opacity="1"><g transform="translate(223.62879, 114.791687)"><g/></g></g><g fill="#ffffff" fill-opacity="1"><g transform="translate(232.411067, 119.708701)"><g><path d="M 15.53125 -12.859375 L 17.453125 -11.234375 L 6.1875 2.09375 L 13.015625 7.859375 L 11.46875 9.6875 L 2.71875 2.296875 Z M 15.53125 -12.859375 "/></g></g></g><g fill="#ffffff" fill-opacity="1"><g transform="translate(246.225504, 132.04836)"><g><path d="M 17.40625 -10.09375 L 19 -8.15625 L 3.703125 4.484375 L 2.109375 2.546875 Z M 17.40625 -10.09375 "/></g></g></g><g fill="#ffffff" fill-opacity="1"><g transform="translate(253.919772, 139.907144)"><g><path d="M 10.5625 21.96875 L 9.484375 19.703125 L 25.40625 12.046875 L 6.671875 13.875 L 5.484375 11.40625 L 18.46875 -2.125 L 2.640625 5.484375 L 1.546875 3.203125 L 19.421875 -5.40625 L 21.328125 -1.4375 L 9.265625 11.171875 L 26.578125 9.46875 L 28.4375 13.359375 Z M 10.5625 21.96875 "/></g></g></g><g fill="#ffffff" fill-opacity="1"><g transform="translate(265.502523, 167.054106)"><g><path d="M 20.09375 -0.8125 L 20.609375 1.625 L 1.1875 5.6875 L 0.671875 3.25 Z M 20.09375 -0.8125 "/></g></g></g><g fill="#ffffff" fill-opacity="1"><g transform="translate(268.013817, 177.900485)"><g><path d="M 17.46875 7.546875 L 17.359375 1.5625 L 19.875 1.515625 L 20.140625 16 L 17.625 16.046875 L 17.515625 10.0625 L 0.1875 10.375 L 0.140625 7.859375 Z M 17.46875 7.546875 "/></g></g></g><g fill="#ffffff" fill-opacity="1"><g transform="translate(268.170282, 197.853134)"><g><path d="M 15.6875 9.765625 L 9.578125 8.390625 L 7.671875 16.859375 L 5.4375 16.359375 L 7.34375 7.890625 L 1 6.46875 L -1.046875 15.546875 L -3.375 15.015625 L -0.78125 3.46875 L 18.578125 7.828125 L 15.984375 19.375 L 13.640625 18.84375 Z M 15.6875 9.765625 "/></g></g></g><g fill="#ffffff" fill-opacity="1"><g transform="translate(263.594629, 217.274687)"><g><path d="M -4.4375 8.171875 C -3.945312 7.179688 -3.304688 6.210938 -2.515625 5.265625 C -1.722656 4.328125 -0.875 3.492188 0.03125 2.765625 L 2.46875 3.96875 C 1.289062 4.78125 0.320312 5.59375 -0.4375 6.40625 C -1.207031 7.226562 -1.820312 8.109375 -2.28125 9.046875 C -2.863281 10.222656 -3.050781 11.265625 -2.84375 12.171875 C -2.644531 13.078125 -2.085938 13.757812 -1.171875 14.21875 C -0.535156 14.53125 0.078125 14.613281 0.671875 14.46875 C 1.273438 14.320312 1.84375 14.039062 2.375 13.625 C 2.90625 13.207031 3.550781 12.609375 4.3125 11.828125 C 5.226562 10.910156 6.019531 10.203125 6.6875 9.703125 C 7.363281 9.203125 8.132812 8.867188 9 8.703125 C 9.875 8.546875 10.8125 8.710938 11.8125 9.203125 C 13.3125 9.953125 14.238281 11.09375 14.59375 12.625 C 14.945312 14.15625 14.671875 15.835938 13.765625 17.671875 C 12.867188 19.460938 11.664062 20.914062 10.15625 22.03125 L 7.828125 20.875 C 9.617188 19.644531 10.910156 18.234375 11.703125 16.640625 C 12.285156 15.460938 12.503906 14.425781 12.359375 13.53125 C 12.210938 12.632812 11.734375 11.988281 10.921875 11.59375 C 10.367188 11.3125 9.816406 11.25 9.265625 11.40625 C 8.710938 11.5625 8.195312 11.828125 7.71875 12.203125 C 7.25 12.585938 6.632812 13.148438 5.875 13.890625 C 4.9375 14.828125 4.113281 15.5625 3.40625 16.09375 C 2.695312 16.632812 1.875 16.984375 0.9375 17.140625 C 0.0078125 17.304688 -0.988281 17.125 -2.0625 16.59375 C -3.113281 16.070312 -3.914062 15.375 -4.46875 14.5 C -5.019531 13.632812 -5.296875 12.648438 -5.296875 11.546875 C -5.296875 10.453125 -5.007812 9.328125 -4.4375 8.171875 Z M -4.4375 8.171875 "/></g></g></g><g clip-path="url(#48c25e7400)"><g clip-path="url(#b9a2639b08)"><path stroke-linecap="butt" transform="matrix(0.75, 0, 0, 0.75, 122.324197, 122.324193)" fill="none" stroke-linejoin="miter" d="M 86.895868 0.0000346435 C 38.906281 0.0000346435 0.0000286435 38.906287 0.0000286435 86.895874 C 0.0000286435 134.890669 38.906281 173.796921 86.895868 173.796921 C 134.890663 173.796921 173.796915 134.890669 173.796915 86.895874 C 173.796915 38.906287 134.890663 0.0000346435 86.895868 0.0000346435 Z M 86.895868 0.0000346435 " stroke="#ffffff" stroke-width="6" stroke-opacity="1" stroke-miterlimit="4"/></g></g><g clip-path="url(#b1ddb282ac)"><path fill="#ffffff" d="M 151.707031 161.617188 C 151.707031 159.398438 151.753906 157.324219 151.683594 155.25 C 151.660156 153.605469 152.351562 152.816406 153.972656 153.054688 C 160.4375 153.960938 167.019531 154.4375 173.316406 155.988281 C 179.46875 157.515625 184.382812 161.378906 187.410156 167.460938 C 192.921875 157.515625 202.246094 154.84375 212.289062 153.582031 C 215.175781 153.222656 218.109375 153.246094 221.019531 153.054688 C 222.6875 152.9375 223.308594 153.675781 223.238281 155.320312 C 223.140625 157.398438 223.214844 159.472656 223.214844 161.667969 C 225.574219 162.023438 227.722656 162.40625 229.867188 162.644531 C 231.296875 162.8125 231.941406 163.40625 231.917969 164.910156 C 231.894531 181.488281 231.894531 198.0625 231.917969 214.664062 C 231.917969 216.691406 230.964844 216.8125 229.320312 216.570312 C 220.519531 215.1875 211.742188 215.046875 203.035156 217.453125 C 197.882812 218.886719 193.160156 221.054688 188.9375 224.417969 C 188.34375 224.894531 186.792969 225.0625 186.265625 224.65625 C 176.964844 217.238281 166.113281 215.332031 154.664062 215.714844 C 151.585938 215.808594 148.484375 216.191406 145.433594 216.644531 C 143.738281 216.90625 143.046875 216.429688 143.070312 214.734375 C 143.097656 198.160156 143.097656 181.582031 143.070312 164.980469 C 143.070312 163.503906 143.621094 162.859375 145.097656 162.691406 C 147.222656 162.382812 149.34375 162 151.707031 161.617188 Z M 153.925781 205.21875 C 166.015625 205.765625 177.824219 206.699219 186.480469 217.527344 C 186.480469 216.046875 186.480469 215.1875 186.480469 214.332031 C 186.480469 201.042969 186.410156 187.757812 186.53125 174.472656 C 186.578125 169.539062 184.742188 165.554688 181.019531 162.546875 C 173.125 156.085938 163.679688 155.371094 153.925781 155.15625 C 153.925781 171.96875 153.925781 188.402344 153.925781 205.21875 Z M 220.875 205.21875 C 220.875 188.355469 220.875 171.828125 220.875 155.296875 C 212.242188 154.75 202.269531 156.894531 196.476562 160.59375 C 191.300781 163.90625 188.367188 168.34375 188.460938 174.832031 C 188.652344 187.855469 188.507812 200.902344 188.507812 213.925781 C 188.507812 214.949219 188.507812 215.953125 188.507812 217.480469 C 197.191406 206.675781 208.949219 205.792969 220.875 205.21875 Z M 223.1875 163.8125 C 223.1875 165.21875 223.1875 166.199219 223.1875 167.175781 C 223.1875 179.554688 223.117188 191.957031 223.238281 204.335938 C 223.261719 206.769531 222.496094 207.4375 220.136719 207.4375 C 216.605469 207.460938 213.027344 207.699219 209.523438 208.222656 C 203.226562 209.179688 197.238281 211.0625 192.683594 215.855469 C 191.324219 217.265625 190.371094 219.054688 189.222656 220.675781 C 201.960938 212.945312 215.53125 212.515625 229.605469 214.332031 C 229.605469 197.683594 229.605469 181.25 229.605469 164.648438 C 227.53125 164.386719 225.550781 164.121094 223.1875 163.8125 Z M 185.574219 220.675781 C 184.714844 219.363281 184.121094 217.71875 182.953125 216.761719 C 180.304688 214.59375 177.585938 212.375 174.53125 210.894531 C 168.617188 208.035156 162.105469 207.582031 155.617188 207.414062 C 151.730469 207.316406 151.707031 207.292969 151.707031 203.261719 C 151.707031 191.148438 151.707031 179.03125 151.707031 166.914062 C 151.707031 165.933594 151.707031 164.980469 151.707031 163.933594 C 150.679688 163.980469 150.035156 163.980469 149.394531 164.074219 C 145.097656 164.625 145.097656 164.625 145.097656 168.894531 C 145.097656 183.011719 145.097656 197.132812 145.097656 211.253906 C 145.097656 212.207031 145.097656 213.160156 145.097656 214.378906 C 159.410156 212.515625 172.957031 212.96875 185.574219 220.675781 Z M 185.574219 220.675781 " fill-opacity="1" fill-rule="nonzero"/></g><g clip-path="url(#91611448ee)"><path fill="#ffffff" d="M 145.152344 260.253906 L 147.460938 264.925781 L 152.632812 265.675781 L 148.890625 269.3125 L 149.773438 274.449219 L 145.152344 272.023438 L 140.523438 274.449219 L 141.40625 269.3125 L 137.667969 265.675781 L 142.835938 264.925781 Z M 145.152344 260.253906 " fill-opacity="1" fill-rule="nonzero"/><path fill="#ffffff" d="M 145.113281 260.207031 L 147.429688 264.878906 L 152.597656 265.628906 L 148.855469 269.269531 L 149.738281 274.40625 L 145.113281 271.980469 L 140.488281 274.40625 L 141.371094 269.269531 L 137.632812 265.628906 L 142.800781 264.878906 Z M 145.113281 260.207031 " fill-opacity="1" fill-rule="nonzero"/><path fill="#ffffff" d="M 145.113281 260.207031 L 147.429688 264.878906 L 152.597656 265.628906 L 148.855469 269.269531 L 149.738281 274.40625 L 145.113281 271.980469 L 140.488281 274.40625 L 141.371094 269.269531 L 137.632812 265.628906 L 142.800781 264.878906 Z M 145.113281 260.207031 " fill-opacity="1" fill-rule="nonzero"/><path fill="#ffffff" d="M 145.113281 260.207031 L 147.429688 264.878906 L 152.597656 265.628906 L 148.855469 269.269531 L 149.738281 274.40625 L 145.113281 271.980469 L 140.488281 274.40625 L 141.371094 269.269531 L 137.632812 265.628906 L 142.800781 264.878906 Z M 145.113281 260.207031 " fill-opacity="1" fill-rule="nonzero"/></g><g clip-path="url(#1ff608a218)"><path fill="#ffffff" d="M 229.847656 260.253906 L 232.160156 264.925781 L 237.328125 265.675781 L 233.585938 269.3125 L 234.472656 274.449219 L 229.847656 272.023438 L 225.222656 274.449219 L 226.105469 269.3125 L 222.367188 265.675781 L 227.535156 264.925781 Z M 229.847656 260.253906 " fill-opacity="1" fill-rule="nonzero"/><path fill="#ffffff" d="M 229.8125 260.207031 L 232.128906 264.878906 L 237.296875 265.628906 L 233.554688 269.269531 L 234.4375 274.40625 L 229.8125 271.980469 L 225.1875 274.40625 L 226.070312 269.269531 L 222.328125 265.628906 L 227.5 264.878906 Z M 229.8125 260.207031 " fill-opacity="1" fill-rule="nonzero"/><path fill="#ffffff" d="M 229.8125 260.207031 L 232.128906 264.878906 L 237.296875 265.628906 L 233.554688 269.269531 L 234.4375 274.40625 L 229.8125 271.980469 L 225.1875 274.40625 L 226.070312 269.269531 L 222.328125 265.628906 L 227.5 264.878906 Z M 229.8125 260.207031 " fill-opacity="1" fill-rule="nonzero"/><path fill="#ffffff" d="M 229.8125 260.207031 L 232.128906 264.878906 L 237.296875 265.628906 L 233.554688 269.269531 L 234.4375 274.40625 L 229.8125 271.980469 L 225.1875 274.40625 L 226.070312 269.269531 L 222.328125 265.628906 L 227.5 264.878906 Z M 229.8125 260.207031 " fill-opacity="1" fill-rule="nonzero"/></g><g clip-path="url(#0b3d3cc360)"><path fill="#ffffff" d="M 187.5 272.550781 L 189.8125 277.222656 L 194.980469 277.972656 L 191.238281 281.609375 L 192.125 286.746094 L 187.5 284.320312 L 182.871094 286.746094 L 183.753906 281.609375 L 180.015625 277.972656 L 185.1875 277.222656 Z M 187.5 272.550781 " fill-opacity="1" fill-rule="nonzero"/></g><g clip-path="url(#8db37bc5db)"><path fill="#ffffff" d="M 187.464844 272.503906 L 189.777344 277.175781 L 194.949219 277.925781 L 191.207031 281.566406 L 192.089844 286.699219 L 187.464844 284.277344 L 182.839844 286.699219 L 183.722656 281.566406 L 179.980469 277.925781 L 185.148438 277.175781 Z M 187.464844 272.503906 " fill-opacity="1" fill-rule="nonzero"/><path fill="#ffffff" d="M 187.464844 272.503906 L 189.777344 277.175781 L 194.949219 277.925781 L 191.207031 281.566406 L 192.089844 286.699219 L 187.464844 284.277344 L 182.839844 286.699219 L 183.722656 281.566406 L 179.980469 277.925781 L 185.148438 277.175781 Z M 187.464844 272.503906 " fill-opacity="1" fill-rule="nonzero"/><path fill="#ffffff" d="M 187.464844 272.503906 L 189.777344 277.175781 L 194.949219 277.925781 L 191.207031 281.566406 L 192.089844 286.699219 L 187.464844 284.277344 L 182.839844 286.699219 L 183.722656 281.566406 L 179.980469 277.925781 L 185.148438 277.175781 Z M 187.464844 272.503906 " fill-opacity="1" fill-rule="nonzero"/></g></svg><svg xmlns="http://www.w3.org/2000/svg" xmlns:xlink="http://www.w3.org/1999/xlink" width="500" zoomAndPan="magnify" viewBox="0 0 375 374.999991" height="500" preserveAspectRatio="xMidYMid meet" version="1.0"><defs><g/><clipPath id="49f5fb7c32"><path d="M 69.652344 69.652344 L 305.152344 69.652344 L 305.152344 305.152344 L 69.652344 305.152344 Z M 69.652344 69.652344 " clip-rule="nonzero"/></clipPath><clipPath id="b32252d69c"><path d="M 187.496094 69.652344 C 122.414062 69.652344 69.652344 122.414062 69.652344 187.496094 C 69.652344 252.582031 122.414062 305.339844 187.496094 305.339844 C 252.582031 305.339844 305.339844 252.582031 305.339844 187.496094 C 305.339844 122.414062 252.582031 69.652344 187.496094 69.652344 Z M 187.496094 69.652344 " clip-rule="nonzero"/></clipPath><clipPath id="48c25e7400"><path d="M 122.324219 122.324219 L 252.671875 122.324219 L 252.671875 252.671875 L 122.324219 252.671875 Z M 122.324219 122.324219 " clip-rule="nonzero"/></clipPath><clipPath id="b9a2639b08"><path d="M 187.496094 122.324219 C 151.503906 122.324219 122.324219 151.503906 122.324219 187.496094 C 122.324219 223.492188 151.503906 252.671875 187.496094 252.671875 C 223.492188 252.671875 252.671875 223.492188 252.671875 187.496094 C 252.671875 151.503906 223.492188 122.324219 187.496094 122.324219 Z M 187.496094 122.324219 " clip-rule="nonzero"/></clipPath><clipPath id="b1ddb282ac"><path d="M 143.035156 153 L 232 153 L 232 224.816406 L 143.035156 224.816406 Z M 143.035156 153 " clip-rule="nonzero"/></clipPath><clipPath id="91611448ee"><path d="M 137.632812 260.203125 L 152.632812 260.203125 L 152.632812 274.453125 L 137.632812 274.453125 Z M 137.632812 260.203125 " clip-rule="nonzero"/></clipPath><clipPath id="1ff608a218"><path d="M 222.328125 260.203125 L 237.328125 260.203125 L 237.328125 274.453125 L 222.328125 274.453125 Z M 222.328125 260.203125 " clip-rule="nonzero"/></clipPath><clipPath id="0b3d3cc360"><path d="M 180 272.5 L 194.980469 272.5 L 194.980469 286.75 L 180 286.75 Z M 180 272.5 " clip-rule="nonzero"/></clipPath><clipPath id="8db37bc5db"><path d="M 179.980469 272.5 L 194.980469 272.5 L 194.980469 286.75 L 179.980469 286.75 Z M 179.980469 272.5 " clip-rule="nonzero"/></clipPath></defs><g clip-path="url(#49f5fb7c32)"><g clip-path="url(#b32252d69c)"><path stroke-linecap="butt" transform="matrix(0.75, 0, 0, 0.75, 69.653285, 69.65328)" fill="none" stroke-linejoin="miter" d="M 157.123756 -0.00124863 C 70.347708 -0.00124863 -0.00125463 70.347714 -0.00125463 157.123762 C -0.00125463 243.905017 70.347708 314.248772 157.123756 314.248772 C 243.905011 314.248772 314.248766 243.905017 314.248766 157.123762 C 314.248766 70.347714 243.905011 -0.00124863 157.123756 -0.00124863 Z M 157.123756 -0.00124863 " stroke="#ffffff" stroke-width="6" stroke-opacity="1" stroke-miterlimit="4"/></g></g><g fill="#ffffff" fill-opacity="1"><g transform="translate(114.581144, 233.77888)"><g><path d="M -11.296875 -11.515625 L -7.1875 -2.90625 L -1.578125 -3.3125 L -0.5 -1.0625 L -21.703125 0.578125 L -23.203125 -2.5625 L -8.5625 -17.984375 L -7.421875 -15.59375 Z M -12.859375 -9.84375 L -20.421875 -1.890625 L -9.46875 -2.71875 Z M -12.859375 -9.84375 "/></g></g></g><g fill="#ffffff" fill-opacity="1"><g transform="translate(105.147334, 213.136361)"><g><path d="M -20.15625 0.171875 L -21.34375 -6.15625 C -22.257812 -11.007812 -20.585938 -13.835938 -16.328125 -14.640625 C -14.179688 -15.046875 -12.425781 -14.753906 -11.0625 -13.765625 C -9.707031 -12.773438 -8.816406 -11.125 -8.390625 -8.8125 L -7.625 -4.75 L -1.125 -5.96875 L -0.65625 -3.5 Z M -10.671875 -8.296875 C -10.972656 -9.890625 -11.515625 -10.976562 -12.296875 -11.5625 C -13.078125 -12.144531 -14.210938 -12.296875 -15.703125 -12.015625 C -17.203125 -11.734375 -18.203125 -11.179688 -18.703125 -10.359375 C -19.210938 -9.535156 -19.304688 -8.285156 -18.984375 -6.609375 L -18.265625 -2.75 L -9.921875 -4.3125 Z M -10.671875 -8.296875 "/></g></g></g><g fill="#ffffff" fill-opacity="1"><g transform="translate(101.491719, 192.984668)"><g><path d="M 0.984375 -14.90625 L -7.046875 -11.40625 L -7.0625 -11.125 L -7.359375 -6.578125 L 0.40625 -6.0625 L 0.234375 -3.546875 L -19.5625 -4.859375 L -19.109375 -11.578125 C -18.953125 -13.941406 -18.335938 -15.671875 -17.265625 -16.765625 C -16.203125 -17.859375 -14.710938 -18.34375 -12.796875 -18.21875 C -11.367188 -18.125 -10.179688 -17.726562 -9.234375 -17.03125 C -8.296875 -16.34375 -7.65625 -15.378906 -7.3125 -14.140625 L 1.1875 -17.90625 Z M -9.4375 -10.96875 C -9.34375 -12.445312 -9.5625 -13.550781 -10.09375 -14.28125 C -10.625 -15.007812 -11.582031 -15.421875 -12.96875 -15.515625 C -14.238281 -15.597656 -15.15625 -15.3125 -15.71875 -14.65625 C -16.289062 -14 -16.625 -12.921875 -16.71875 -11.421875 L -17 -7.21875 L -9.71875 -6.734375 Z M -9.4375 -10.96875 "/></g></g></g><g fill="#ffffff" fill-opacity="1"><g transform="translate(103.236102, 171.452755)"><g><path d="M -14.6875 -11.1875 L -8.734375 -9.25 L -6.046875 -17.5 L -3.875 -16.78125 L -6.5625 -8.53125 L -0.375 -6.515625 L 2.5 -15.375 L 4.765625 -14.640625 L 1.109375 -3.390625 L -17.75 -9.53125 L -14.09375 -20.78125 L -11.8125 -20.046875 Z M -14.6875 -11.1875 "/></g></g></g><g fill="#ffffff" fill-opacity="1"><g transform="translate(109.31117, 152.527472)"><g><path d="M -6.0625 -26.96875 L 10.53125 -16.09375 L 9.171875 -14 L -9.46875 -13.453125 L 3.328125 -5.078125 L 1.953125 -2.984375 L -14.640625 -13.859375 L -13.265625 -15.953125 L 5.375 -16.484375 L -7.421875 -24.875 Z M -6.0625 -26.96875 "/></g></g></g><g fill="#ffffff" fill-opacity="1"><g transform="translate(122.835245, 132.345072)"><g><path d="M -5.015625 -21.765625 C -2.773438 -23.660156 -0.492188 -24.445312 1.828125 -24.125 C 4.148438 -23.800781 6.316406 -22.453125 8.328125 -20.078125 C 10.347656 -17.703125 11.328125 -15.34375 11.265625 -13 C 11.210938 -10.65625 10.066406 -8.535156 7.828125 -6.640625 L 2.71875 -2.3125 L -10.125 -17.4375 Z M 6.421875 -8.59375 C 7.984375 -9.914062 8.726562 -11.421875 8.65625 -13.109375 C 8.582031 -14.804688 7.785156 -16.546875 6.265625 -18.328125 C 4.753906 -20.109375 3.171875 -21.171875 1.515625 -21.515625 C -0.140625 -21.867188 -1.75 -21.382812 -3.3125 -20.0625 L -6.640625 -17.234375 L 3.09375 -5.765625 Z M 6.421875 -8.59375 "/></g></g></g><g fill="#ffffff" fill-opacity="1"><g transform="translate(141.290637, 117.304964)"><g><path d="M -1.953125 -18.359375 L 0.71875 -12.6875 L 8.5625 -16.40625 L 9.546875 -14.34375 L 1.703125 -10.625 L 4.484375 -4.75 L 12.890625 -8.734375 L 13.90625 -6.578125 L 3.21875 -1.53125 L -5.265625 -19.46875 L 5.421875 -24.515625 L 6.453125 -22.34375 Z M -1.953125 -18.359375 "/></g></g></g><g fill="#ffffff" fill-opacity="1"><g transform="translate(159.821098, 109.248556)"><g/></g></g><g fill="#ffffff" fill-opacity="1"><g transform="translate(169.435321, 106.396143)"><g><path d="M 9.296875 -0.390625 C 8.191406 -0.304688 7.03125 -0.359375 5.8125 -0.546875 C 4.59375 -0.734375 3.441406 -1.03125 2.359375 -1.4375 L 2.140625 -4.140625 C 3.429688 -3.554688 4.625 -3.144531 5.71875 -2.90625 C 6.8125 -2.675781 7.882812 -2.601562 8.9375 -2.6875 C 10.25 -2.789062 11.238281 -3.160156 11.90625 -3.796875 C 12.570312 -4.441406 12.863281 -5.273438 12.78125 -6.296875 C 12.726562 -7.003906 12.488281 -7.578125 12.0625 -8.015625 C 11.632812 -8.453125 11.101562 -8.789062 10.46875 -9.03125 C 9.84375 -9.269531 9 -9.519531 7.9375 -9.78125 C 6.6875 -10.101562 5.671875 -10.421875 4.890625 -10.734375 C 4.109375 -11.054688 3.421875 -11.546875 2.828125 -12.203125 C 2.242188 -12.859375 1.910156 -13.742188 1.828125 -14.859375 C 1.691406 -16.535156 2.191406 -17.914062 3.328125 -19 C 4.460938 -20.082031 6.050781 -20.707031 8.09375 -20.875 C 10.082031 -21.03125 11.945312 -20.75 13.6875 -20.03125 L 13.890625 -17.4375 C 11.929688 -18.332031 10.0625 -18.710938 8.28125 -18.578125 C 6.96875 -18.472656 5.960938 -18.128906 5.265625 -17.546875 C 4.578125 -16.972656 4.269531 -16.234375 4.34375 -15.328125 C 4.382812 -14.703125 4.613281 -14.191406 5.03125 -13.796875 C 5.445312 -13.410156 5.9375 -13.113281 6.5 -12.90625 C 7.070312 -12.695312 7.867188 -12.453125 8.890625 -12.171875 C 10.191406 -11.847656 11.253906 -11.519531 12.078125 -11.1875 C 12.898438 -10.851562 13.617188 -10.332031 14.234375 -9.625 C 14.847656 -8.914062 15.203125 -7.960938 15.296875 -6.765625 C 15.390625 -5.585938 15.203125 -4.535156 14.734375 -3.609375 C 14.273438 -2.691406 13.578125 -1.953125 12.640625 -1.390625 C 11.703125 -0.828125 10.585938 -0.492188 9.296875 -0.390625 Z M 9.296875 -0.390625 "/></g></g></g><g fill="#ffffff" fill-opacity="1"><g transform="translate(189.585007, 105.414497)"><g><path d="M 5.453125 -19.359375 L 7.9375 -19.09375 L 5.78125 0.625 L 3.296875 0.359375 Z M 5.453125 -19.359375 "/></g></g></g><g fill="#ffffff" fill-opacity="1"><g transform="translate(200.614403, 106.090214)"><g><path d="M 24.53125 -12.71875 L 18.234375 6.09375 L 15.875 5.3125 L 10.609375 -12.578125 L 5.765625 1.921875 L 3.375 1.125 L 9.671875 -17.6875 L 12.0625 -16.890625 L 17.3125 1.015625 L 22.171875 -13.5 Z M 24.53125 -12.71875 "/></g></g></g><g fill="#ffffff" fill-opacity="1"><g transform="translate(223.62879, 114.791687)"><g/></g></g><g fill="#ffffff" fill-opacity="1"><g transform="translate(232.411067, 119.708701)"><g><path d="M 15.53125 -12.859375 L 17.453125 -11.234375 L 6.1875 2.09375 L 13.015625 7.859375 L 11.46875 9.6875 L 2.71875 2.296875 Z M 15.53125 -12.859375 "/></g></g></g><g fill="#ffffff" fill-opacity="1"><g transform="translate(246.225504, 132.04836)"><g><path d="M 17.40625 -10.09375 L 19 -8.15625 L 3.703125 4.484375 L 2.109375 2.546875 Z M 17.40625 -10.09375 "/></g></g></g><g fill="#ffffff" fill-opacity="1"><g transform="translate(253.919772, 139.907144)"><g><path d="M 10.5625 21.96875 L 9.484375 19.703125 L 25.40625 12.046875 L 6.671875 13.875 L 5.484375 11.40625 L 18.46875 -2.125 L 2.640625 5.484375 L 1.546875 3.203125 L 19.421875 -5.40625 L 21.328125 -1.4375 L 9.265625 11.171875 L 26.578125 9.46875 L 28.4375 13.359375 Z M 10.5625 21.96875 "/></g></g></g><g fill="#ffffff" fill-opacity="1"><g transform="translate(265.502523, 167.054106)"><g><path d="M 20.09375 -0.8125 L 20.609375 1.625 L 1.1875 5.6875 L 0.671875 3.25 Z M 20.09375 -0.8125 "/></g></g></g><g fill="#ffffff" fill-opacity="1"><g transform="translate(268.013817, 177.900485)"><g><path d="M 17.46875 7.546875 L 17.359375 1.5625 L 19.875 1.515625 L 20.140625 16 L 17.625 16.046875 L 17.515625 10.0625 L 0.1875 10.375 L 0.140625 7.859375 Z M 17.46875 7.546875 "/></g></g></g><g fill="#ffffff" fill-opacity="1"><g transform="translate(268.170282, 197.853134)"><g><path d="M 15.6875 9.765625 L 9.578125 8.390625 L 7.671875 16.859375 L 5.4375 16.359375 L 7.34375 7.890625 L 1 6.46875 L -1.046875 15.546875 L -3.375 15.015625 L -0.78125 3.46875 L 18.578125 7.828125 L 15.984375 19.375 L 13.640625 18.84375 Z M 15.6875 9.765625 "/></g></g></g><g fill="#ffffff" fill-opacity="1"><g transform="translate(263.594629, 217.274687)"><g><path d="M -4.4375 8.171875 C -3.945312 7.179688 -3.304688 6.210938 -2.515625 5.265625 C -1.722656 4.328125 -0.875 3.492188 0.03125 2.765625 L 2.46875 3.96875 C 1.289062 4.78125 0.320312 5.59375 -0.4375 6.40625 C -1.207031 7.226562 -1.820312 8.109375 -2.28125 9.046875 C -2.863281 10.222656 -3.050781 11.265625 -2.84375 12.171875 C -2.644531 13.078125 -2.085938 13.757812 -1.171875 14.21875 C -0.535156 14.53125 0.078125 14.613281 0.671875 14.46875 C 1.273438 14.320312 1.84375 14.039062 2.375 13.625 C 2.90625 13.207031 3.550781 12.609375 4.3125 11.828125 C 5.226562 10.910156 6.019531 10.203125 6.6875 9.703125 C 7.363281 9.203125 8.132812 8.867188 9 8.703125 C 9.875 8.546875 10.8125 8.710938 11.8125 9.203125 C 13.3125 9.953125 14.238281 11.09375 14.59375 12.625 C 14.945312 14.15625 14.671875 15.835938 13.765625 17.671875 C 12.867188 19.460938 11.664062 20.914062 10.15625 22.03125 L 7.828125 20.875 C 9.617188 19.644531 10.910156 18.234375 11.703125 16.640625 C 12.285156 15.460938 12.503906 14.425781 12.359375 13.53125 C 12.210938 12.632812 11.734375 11.988281 10.921875 11.59375 C 10.367188 11.3125 9.816406 11.25 9.265625 11.40625 C 8.710938 11.5625 8.195312 11.828125 7.71875 12.203125 C 7.25 12.585938 6.632812 13.148438 5.875 13.890625 C 4.9375 14.828125 4.113281 15.5625 3.40625 16.09375 C 2.695312 16.632812 1.875 16.984375 0.9375 17.140625 C 0.0078125 17.304688 -0.988281 17.125 -2.0625 16.59375 C -3.113281 16.070312 -3.914062 15.375 -4.46875 14.5 C -5.019531 13.632812 -5.296875 12.648438 -5.296875 11.546875 C -5.296875 10.453125 -5.007812 9.328125 -4.4375 8.171875 Z M -4.4375 8.171875 "/></g></g></g><g clip-path="url(#48c25e7400)"><g clip-path="url(#b9a2639b08)"><path stroke-linecap="butt" transform="matrix(0.75, 0, 0, 0.75, 122.324197, 122.324193)" fill="none" stroke-linejoin="miter" d="M 86.895868 0.0000346435 C 38.906281 0.0000346435 0.0000286435 38.906287 0.0000286435 86.895874 C 0.0000286435 134.890669 38.906281 173.796921 86.895868 173.796921 C 134.890663 173.796921 173.796915 134.890669 173.796915 86.895874 C 173.796915 38.906287 134.890663 0.0000346435 86.895868 0.0000346435 Z M 86.895868 0.0000346435 " stroke="#ffffff" stroke-width="6" stroke-opacity="1" stroke-miterlimit="4"/></g></g><g clip-path="url(#b1ddb282ac)"><path fill="#ffffff" d="M 151.707031 161.617188 C 151.707031 159.398438 151.753906 157.324219 151.683594 155.25 C 151.660156 153.605469 152.351562 152.816406 153.972656 153.054688 C 160.4375 153.960938 167.019531 154.4375 173.316406 155.988281 C 179.46875 157.515625 184.382812 161.378906 187.410156 167.460938 C 192.921875 157.515625 202.246094 154.84375 212.289062 153.582031 C 215.175781 153.222656 218.109375 153.246094 221.019531 153.054688 C 222.6875 152.9375 223.308594 153.675781 223.238281 155.320312 C 223.140625 157.398438 223.214844 159.472656 223.214844 161.667969 C 225.574219 162.023438 227.722656 162.40625 229.867188 162.644531 C 231.296875 162.8125 231.941406 163.40625 231.917969 164.910156 C 231.894531 181.488281 231.894531 198.0625 231.917969 214.664062 C 231.917969 216.691406 230.964844 216.8125 229.320312 216.570312 C 220.519531 215.1875 211.742188 215.046875 203.035156 217.453125 C 197.882812 218.886719 193.160156 221.054688 188.9375 224.417969 C 188.34375 224.894531 186.792969 225.0625 186.265625 224.65625 C 176.964844 217.238281 166.113281 215.332031 154.664062 215.714844 C 151.585938 215.808594 148.484375 216.191406 145.433594 216.644531 C 143.738281 216.90625 143.046875 216.429688 143.070312 214.734375 C 143.097656 198.160156 143.097656 181.582031 143.070312 164.980469 C 143.070312 163.503906 143.621094 162.859375 145.097656 162.691406 C 147.222656 162.382812 149.34375 162 151.707031 161.617188 Z M 153.925781 205.21875 C 166.015625 205.765625 177.824219 206.699219 186.480469 217.527344 C 186.480469 216.046875 186.480469 215.1875 186.480469 214.332031 C 186.480469 201.042969 186.410156 187.757812 186.53125 174.472656 C 186.578125 169.539062 184.742188 165.554688 181.019531 162.546875 C 173.125 156.085938 163.679688 155.371094 153.925781 155.15625 C 153.925781 171.96875 153.925781 188.402344 153.925781 205.21875 Z M 220.875 205.21875 C 220.875 188.355469 220.875 171.828125 220.875 155.296875 C 212.242188 154.75 202.269531 156.894531 196.476562 160.59375 C 191.300781 163.90625 188.367188 168.34375 188.460938 174.832031 C 188.652344 187.855469 188.507812 200.902344 188.507812 213.925781 C 188.507812 214.949219 188.507812 215.953125 188.507812 217.480469 C 197.191406 206.675781 208.949219 205.792969 220.875 205.21875 Z M 223.1875 163.8125 C 223.1875 165.21875 223.1875 166.199219 223.1875 167.175781 C 223.1875 179.554688 223.117188 191.957031 223.238281 204.335938 C 223.261719 206.769531 222.496094 207.4375 220.136719 207.4375 C 216.605469 207.460938 213.027344 207.699219 209.523438 208.222656 C 203.226562 209.179688 197.238281 211.0625 192.683594 215.855469 C 191.324219 217.265625 190.371094 219.054688 189.222656 220.675781 C 201.960938 212.945312 215.53125 212.515625 229.605469 214.332031 C 229.605469 197.683594 229.605469 181.25 229.605469 164.648438 C 227.53125 164.386719 225.550781 164.121094 223.1875 163.8125 Z M 185.574219 220.675781 C 184.714844 219.363281 184.121094 217.71875 182.953125 216.761719 C 180.304688 214.59375 177.585938 212.375 174.53125 210.894531 C 168.617188 208.035156 162.105469 207.582031 155.617188 207.414062 C 151.730469 207.316406 151.707031 207.292969 151.707031 203.261719 C 151.707031 191.148438 151.707031 179.03125 151.707031 166.914062 C 151.707031 165.933594 151.707031 164.980469 151.707031 163.933594 C 150.679688 163.980469 150.035156 163.980469 149.394531 164.074219 C 145.097656 164.625 145.097656 164.625 145.097656 168.894531 C 145.097656 183.011719 145.097656 197.132812 145.097656 211.253906 C 145.097656 212.207031 145.097656 213.160156 145.097656 214.378906 C 159.410156 212.515625 172.957031 212.96875 185.574219 220.675781 Z M 185.574219 220.675781 " fill-opacity="1" fill-rule="nonzero"/></g><g clip-path="url(#91611448ee)"><path fill="#ffffff" d="M 145.152344 260.253906 L 147.460938 264.925781 L 152.632812 265.675781 L 148.890625 269.3125 L 149.773438 274.449219 L 145.152344 272.023438 L 140.523438 274.449219 L 141.40625 269.3125 L 137.667969 265.675781 L 142.835938 264.925781 Z M 145.152344 260.253906 " fill-opacity="1" fill-rule="nonzero"/><path fill="#ffffff" d="M 145.113281 260.207031 L 147.429688 264.878906 L 152.597656 265.628906 L 148.855469 269.269531 L 149.738281 274.40625 L 145.113281 271.980469 L 140.488281 274.40625 L 141.371094 269.269531 L 137.632812 265.628906 L 142.800781 264.878906 Z M 145.113281 260.207031 " fill-opacity="1" fill-rule="nonzero"/><path fill="#ffffff" d="M 145.113281 260.207031 L 147.429688 264.878906 L 152.597656 265.628906 L 148.855469 269.269531 L 149.738281 274.40625 L 145.113281 271.980469 L 140.488281 274.40625 L 141.371094 269.269531 L 137.632812 265.628906 L 142.800781 264.878906 Z M 145.113281 260.207031 " fill-opacity="1" fill-rule="nonzero"/><path fill="#ffffff" d="M 145.113281 260.207031 L 147.429688 264.878906 L 152.597656 265.628906 L 148.855469 269.269531 L 149.738281 274.40625 L 145.113281 271.980469 L 140.488281 274.40625 L 141.371094 269.269531 L 137.632812 265.628906 L 142.800781 264.878906 Z M 145.113281 260.207031 " fill-opacity="1" fill-rule="nonzero"/></g><g clip-path="url(#1ff608a218)"><path fill="#ffffff" d="M 229.847656 260.253906 L 232.160156 264.925781 L 237.328125 265.675781 L 233.585938 269.3125 L 234.472656 274.449219 L 229.847656 272.023438 L 225.222656 274.449219 L 226.105469 269.3125 L 222.367188 265.675781 L 227.535156 264.925781 Z M 229.847656 260.253906 " fill-opacity="1" fill-rule="nonzero"/><path fill="#ffffff" d="M 229.8125 260.207031 L 232.128906 264.878906 L 237.296875 265.628906 L 233.554688 269.269531 L 234.4375 274.40625 L 229.8125 271.980469 L 225.1875 274.40625 L 226.070312 269.269531 L 222.328125 265.628906 L 227.5 264.878906 Z M 229.8125 260.207031 " fill-opacity="1" fill-rule="nonzero"/><path fill="#ffffff" d="M 229.8125 260.207031 L 232.128906 264.878906 L 237.296875 265.628906 L 233.554688 269.269531 L 234.4375 274.40625 L 229.8125 271.980469 L 225.1875 274.40625 L 226.070312 269.269531 L 222.328125 265.628906 L 227.5 264.878906 Z M 229.8125 260.207031 " fill-opacity="1" fill-rule="nonzero"/><path fill="#ffffff" d="M 229.8125 260.207031 L 232.128906 264.878906 L 237.296875 265.628906 L 233.554688 269.269531 L 234.4375 274.40625 L 229.8125 271.980469 L 225.1875 274.40625 L 226.070312 269.269531 L 222.328125 265.628906 L 227.5 264.878906 Z M 229.8125 260.207031 " fill-opacity="1" fill-rule="nonzero"/></g><g clip-path="url(#0b3d3cc360)"><path fill="#ffffff" d="M 187.5 272.550781 L 189.8125 277.222656 L 194.980469 277.972656 L 191.238281 281.609375 L 192.125 286.746094 L 187.5 284.320312 L 182.871094 286.746094 L 183.753906 281.609375 L 180.015625 277.972656 L 185.1875 277.222656 Z M 187.5 272.550781 " fill-opacity="1" fill-rule="nonzero"/></g><g clip-path="url(#8db37bc5db)"><path fill="#ffffff" d="M 187.464844 272.503906 L 189.777344 277.175781 L 194.949219 277.925781 L 191.207031 281.566406 L 192.089844 286.699219 L 187.464844 284.277344 L 182.839844 286.699219 L 183.722656 281.566406 L 179.980469 277.925781 L 185.148438 277.175781 Z M 187.464844 272.503906 " fill-opacity="1" fill-rule="nonzero"/><path fill="#ffffff" d="M 187.464844 272.503906 L 189.777344 277.175781 L 194.949219 277.925781 L 191.207031 281.566406 L 192.089844 286.699219 L 187.464844 284.277344 L 182.839844 286.699219 L 183.722656 281.566406 L 179.980469 277.925781 L 185.148438 277.175781 Z M 187.464844 272.503906 " fill-opacity="1" fill-rule="nonzero"/><path fill="#ffffff" d="M 187.464844 272.503906 L 189.777344 277.175781 L 194.949219 277.925781 L 191.207031 281.566406 L 192.089844 286.699219 L 187.464844 284.277344 L 182.839844 286.699219 L 183.722656 281.566406 L 179.980469 277.925781 L 185.148438 277.175781 Z M 187.464844 272.503906 " fill-opacity="1" fill-rule="nonzero"/></g></svg>