<svg xmlns="http://www.w3.org/2000/svg" xmlns:xlink="http://www.w3.org/1999/xlink" width="500" zoomAndPan="magnify" viewBox="0 0 375 374.999991" height="500" preserveAspectRatio="xMidYMid meet" version="1.0"><path fill="#ffffff" d="M 337.257812 317.972656 L 57.007812 37.71875 C 48.417969 29.132812 33.679688 35.21875 33.679688 47.394531 L 33.679688 71.042969 L 56.109375 71.042969 C 56.738281 71.042969 57.363281 71.105469 57.984375 71.230469 C 58.601562 71.351562 59.203125 71.535156 59.785156 71.777344 C 60.367188 72.019531 60.921875 72.316406 61.445312 72.667969 C 61.972656 73.015625 62.457031 73.414062 62.902344 73.863281 C 63.347656 74.308594 63.746094 74.792969 64.097656 75.316406 C 64.449219 75.84375 64.742188 76.398438 64.984375 76.980469 C 65.226562 77.5625 65.40625 78.164062 65.53125 78.78125 C 65.652344 79.402344 65.714844 80.027344 65.714844 80.65625 C 65.714844 81.289062 65.652344 81.914062 65.53125 82.53125 C 65.40625 83.148438 65.226562 83.75 64.984375 84.335938 C 64.742188 84.917969 64.449219 85.472656 64.097656 85.996094 C 63.746094 86.519531 63.347656 87.003906 62.902344 87.453125 C 62.457031 87.898438 61.972656 88.296875 61.445312 88.648438 C 60.921875 89 60.367188 89.292969 59.785156 89.535156 C 59.203125 89.777344 58.601562 89.960938 57.984375 90.082031 C 57.363281 90.207031 56.738281 90.269531 56.109375 90.269531 L 33.679688 90.269531 L 33.679688 106.484375 L 46.496094 106.484375 C 47.128906 106.484375 47.753906 106.546875 48.371094 106.667969 C 48.992188 106.792969 49.589844 106.972656 50.175781 107.214844 C 50.757812 107.457031 51.3125 107.753906 51.835938 108.105469 C 52.363281 108.453125 52.847656 108.851562 53.292969 109.300781 C 53.738281 109.746094 54.136719 110.230469 54.488281 110.757812 C 54.839844 111.28125 55.136719 111.835938 55.378906 112.417969 C 55.617188 113 55.800781 113.601562 55.925781 114.222656 C 56.046875 114.839844 56.109375 115.464844 56.109375 116.097656 C 56.109375 116.726562 56.046875 117.351562 55.925781 117.972656 C 55.800781 118.589844 55.617188 119.191406 55.378906 119.777344 C 55.136719 120.359375 54.839844 120.914062 54.488281 121.4375 C 54.136719 121.960938 53.738281 122.449219 53.292969 122.894531 C 52.847656 123.339844 52.363281 123.738281 51.835938 124.089844 C 51.3125 124.441406 50.757812 124.738281 50.175781 124.976562 C 49.589844 125.21875 48.992188 125.402344 48.371094 125.523438 C 47.753906 125.648438 47.128906 125.710938 46.496094 125.710938 L 33.679688 125.710938 L 33.679688 141.925781 L 46.496094 141.925781 C 47.128906 141.921875 47.753906 141.984375 48.371094 142.105469 C 48.992188 142.230469 49.59375 142.410156 50.179688 142.652344 C 50.761719 142.894531 51.316406 143.191406 51.839844 143.542969 C 52.367188 143.890625 52.851562 144.289062 53.300781 144.738281 C 53.746094 145.183594 54.144531 145.667969 54.496094 146.195312 C 54.847656 146.71875 55.144531 147.273438 55.386719 147.855469 C 55.628906 148.441406 55.808594 149.042969 55.933594 149.660156 C 56.058594 150.28125 56.117188 150.90625 56.117188 151.539062 C 56.117188 152.167969 56.058594 152.792969 55.933594 153.414062 C 55.808594 154.035156 55.628906 154.632812 55.386719 155.21875 C 55.144531 155.800781 54.847656 156.355469 54.496094 156.882812 C 54.144531 157.40625 53.746094 157.890625 53.300781 158.339844 C 52.851562 158.785156 52.367188 159.183594 51.839844 159.535156 C 51.316406 159.882812 50.761719 160.179688 50.179688 160.421875 C 49.59375 160.664062 48.992188 160.84375 48.371094 160.96875 C 47.753906 161.089844 47.128906 161.152344 46.496094 161.148438 L 33.679688 161.148438 L 33.679688 177.363281 L 56.109375 177.363281 C 56.742188 177.363281 57.367188 177.425781 57.984375 177.550781 C 58.605469 177.671875 59.203125 177.855469 59.789062 178.097656 C 60.371094 178.335938 60.925781 178.632812 61.449219 178.984375 C 61.976562 179.335938 62.460938 179.734375 62.90625 180.179688 C 63.351562 180.625 63.75 181.113281 64.101562 181.636719 C 64.453125 182.160156 64.75 182.714844 64.992188 183.296875 C 65.230469 183.882812 65.414062 184.484375 65.539062 185.101562 C 65.660156 185.722656 65.722656 186.347656 65.722656 186.976562 C 65.722656 187.609375 65.660156 188.234375 65.539062 188.851562 C 65.414062 189.472656 65.230469 190.074219 64.992188 190.65625 C 64.75 191.238281 64.453125 191.792969 64.101562 192.316406 C 63.75 192.84375 63.351562 193.328125 62.90625 193.773438 C 62.460938 194.222656 61.976562 194.621094 61.449219 194.96875 C 60.925781 195.320312 60.371094 195.617188 59.789062 195.859375 C 59.203125 196.101562 58.605469 196.28125 57.984375 196.40625 C 57.367188 196.527344 56.742188 196.589844 56.109375 196.589844 L 33.679688 196.589844 L 33.679688 212.742188 L 46.496094 212.742188 C 47.128906 212.742188 47.753906 212.800781 48.371094 212.925781 C 48.992188 213.046875 49.589844 213.230469 50.175781 213.472656 C 50.757812 213.714844 51.3125 214.011719 51.835938 214.359375 C 52.363281 214.710938 52.847656 215.109375 53.292969 215.554688 C 53.738281 216.003906 54.136719 216.488281 54.488281 217.011719 C 54.839844 217.539062 55.136719 218.089844 55.378906 218.675781 C 55.617188 219.257812 55.800781 219.859375 55.925781 220.476562 C 56.046875 221.097656 56.109375 221.722656 56.109375 222.351562 C 56.109375 222.984375 56.046875 223.609375 55.925781 224.230469 C 55.800781 224.847656 55.617188 225.449219 55.378906 226.03125 C 55.136719 226.617188 54.839844 227.167969 54.488281 227.695312 C 54.136719 228.21875 53.738281 228.703125 53.292969 229.152344 C 52.847656 229.597656 52.363281 229.996094 51.835938 230.347656 C 51.3125 230.695312 50.757812 230.992188 50.175781 231.234375 C 49.589844 231.476562 48.992188 231.660156 48.371094 231.78125 C 47.753906 231.90625 47.128906 231.964844 46.496094 231.964844 L 33.679688 231.964844 L 33.679688 248.179688 L 46.496094 248.179688 C 47.128906 248.179688 47.753906 248.242188 48.371094 248.367188 C 48.992188 248.488281 49.589844 248.671875 50.175781 248.914062 C 50.757812 249.15625 51.3125 249.449219 51.835938 249.800781 C 52.363281 250.152344 52.847656 250.550781 53.292969 250.996094 C 53.738281 251.441406 54.136719 251.929688 54.488281 252.453125 C 54.839844 252.976562 55.136719 253.53125 55.378906 254.117188 C 55.617188 254.699219 55.800781 255.300781 55.925781 255.917969 C 56.046875 256.539062 56.109375 257.164062 56.109375 257.792969 C 56.109375 258.425781 56.046875 259.050781 55.925781 259.667969 C 55.800781 260.289062 55.617188 260.890625 55.378906 261.472656 C 55.136719 262.054688 54.839844 262.609375 54.488281 263.136719 C 54.136719 263.660156 53.738281 264.144531 53.292969 264.589844 C 52.847656 265.039062 52.363281 265.4375 51.835938 265.785156 C 51.3125 266.136719 50.757812 266.433594 50.175781 266.675781 C 49.589844 266.917969 48.992188 267.097656 48.371094 267.222656 C 47.753906 267.34375 47.128906 267.40625 46.496094 267.40625 L 33.679688 267.40625 L 33.679688 283.621094 L 56.109375 283.621094 C 56.742188 283.621094 57.367188 283.683594 57.984375 283.804688 C 58.605469 283.929688 59.203125 284.109375 59.789062 284.351562 C 60.371094 284.59375 60.925781 284.890625 61.449219 285.242188 C 61.976562 285.589844 62.460938 285.988281 62.90625 286.4375 C 63.351562 286.882812 63.75 287.367188 64.101562 287.894531 C 64.453125 288.417969 64.75 288.972656 64.992188 289.554688 C 65.230469 290.136719 65.414062 290.738281 65.539062 291.359375 C 65.660156 291.976562 65.722656 292.601562 65.722656 293.234375 C 65.722656 293.863281 65.660156 294.488281 65.539062 295.109375 C 65.414062 295.726562 65.230469 296.328125 64.992188 296.914062 C 64.75 297.496094 64.453125 298.050781 64.101562 298.574219 C 63.75 299.097656 63.351562 299.585938 62.90625 300.03125 C 62.460938 300.476562 61.976562 300.875 61.449219 301.226562 C 60.925781 301.578125 60.371094 301.875 59.789062 302.113281 C 59.203125 302.355469 58.605469 302.539062 57.984375 302.660156 C 57.367188 302.785156 56.742188 302.847656 56.109375 302.847656 L 33.679688 302.847656 L 33.679688 327.648438 C 33.679688 328.542969 33.769531 329.433594 33.941406 330.3125 C 34.117188 331.1875 34.378906 332.042969 34.722656 332.871094 C 35.066406 333.699219 35.484375 334.484375 35.984375 335.230469 C 36.480469 335.972656 37.046875 336.664062 37.679688 337.296875 C 38.3125 337.929688 39.003906 338.496094 39.75 338.996094 C 40.492188 339.492188 41.28125 339.914062 42.109375 340.257812 C 42.9375 340.601562 43.789062 340.859375 44.667969 341.035156 C 45.546875 341.210938 46.433594 341.296875 47.332031 341.296875 L 72.132812 341.296875 L 72.132812 318.867188 C 72.132812 318.238281 72.191406 317.613281 72.316406 316.992188 C 72.4375 316.375 72.621094 315.773438 72.863281 315.191406 C 73.105469 314.605469 73.398438 314.050781 73.75 313.527344 C 74.101562 313.003906 74.5 312.515625 74.945312 312.070312 C 75.394531 311.625 75.878906 311.226562 76.402344 310.875 C 76.929688 310.523438 77.480469 310.230469 78.066406 309.988281 C 78.648438 309.746094 79.25 309.5625 79.867188 309.441406 C 80.488281 309.316406 81.113281 309.253906 81.742188 309.253906 C 82.375 309.253906 83 309.316406 83.621094 309.441406 C 84.238281 309.5625 84.839844 309.746094 85.421875 309.988281 C 86.007812 310.230469 86.558594 310.523438 87.085938 310.875 C 87.609375 311.226562 88.09375 311.625 88.542969 312.070312 C 88.988281 312.515625 89.386719 313.003906 89.738281 313.527344 C 90.085938 314.050781 90.382812 314.605469 90.625 315.191406 C 90.867188 315.773438 91.050781 316.375 91.171875 316.992188 C 91.296875 317.613281 91.355469 318.238281 91.355469 318.867188 L 91.355469 341.296875 L 107.570312 341.296875 L 107.570312 328.480469 C 107.570312 327.851562 107.632812 327.226562 107.757812 326.605469 C 107.878906 325.988281 108.0625 325.386719 108.304688 324.800781 C 108.542969 324.21875 108.839844 323.664062 109.191406 323.140625 C 109.542969 322.617188 109.941406 322.128906 110.386719 321.683594 C 110.832031 321.238281 111.320312 320.839844 111.84375 320.488281 C 112.367188 320.136719 112.921875 319.839844 113.503906 319.601562 C 114.089844 319.359375 114.691406 319.175781 115.308594 319.054688 C 115.929688 318.929688 116.554688 318.867188 117.183594 318.867188 C 117.816406 318.867188 118.441406 318.929688 119.058594 319.054688 C 119.679688 319.175781 120.28125 319.359375 120.863281 319.601562 C 121.445312 319.839844 122 320.136719 122.523438 320.488281 C 123.050781 320.839844 123.535156 321.238281 123.980469 321.683594 C 124.429688 322.128906 124.828125 322.617188 125.175781 323.140625 C 125.527344 323.664062 125.824219 324.21875 126.066406 324.800781 C 126.308594 325.386719 126.488281 325.988281 126.613281 326.605469 C 126.734375 327.226562 126.796875 327.851562 126.796875 328.480469 L 126.796875 341.296875 L 143.011719 341.296875 L 143.011719 328.480469 C 143.011719 327.851562 143.074219 327.226562 143.199219 326.605469 C 143.320312 325.988281 143.503906 325.386719 143.746094 324.804688 C 143.988281 324.222656 144.285156 323.667969 144.636719 323.144531 C 144.984375 322.621094 145.382812 322.136719 145.832031 321.691406 C 146.277344 321.246094 146.761719 320.847656 147.285156 320.496094 C 147.8125 320.144531 148.363281 319.851562 148.949219 319.609375 C 149.53125 319.367188 150.132812 319.183594 150.75 319.0625 C 151.367188 318.9375 151.992188 318.878906 152.625 318.878906 C 153.253906 318.878906 153.878906 318.9375 154.5 319.0625 C 155.117188 319.183594 155.71875 319.367188 156.300781 319.609375 C 156.882812 319.851562 157.4375 320.144531 157.960938 320.496094 C 158.488281 320.847656 158.972656 321.246094 159.417969 321.691406 C 159.863281 322.136719 160.261719 322.621094 160.613281 323.144531 C 160.964844 323.667969 161.261719 324.222656 161.503906 324.804688 C 161.746094 325.386719 161.925781 325.988281 162.050781 326.605469 C 162.175781 327.226562 162.238281 327.851562 162.238281 328.480469 L 162.238281 341.296875 L 178.453125 341.296875 L 178.453125 318.867188 C 178.453125 318.238281 178.511719 317.613281 178.636719 316.992188 C 178.757812 316.375 178.941406 315.773438 179.183594 315.191406 C 179.425781 314.605469 179.722656 314.050781 180.070312 313.527344 C 180.421875 313.003906 180.820312 312.515625 181.265625 312.070312 C 181.714844 311.625 182.199219 311.226562 182.722656 310.875 C 183.25 310.523438 183.804688 310.230469 184.386719 309.988281 C 184.96875 309.746094 185.570312 309.5625 186.1875 309.441406 C 186.808594 309.316406 187.433594 309.253906 188.066406 309.253906 C 188.695312 309.253906 189.320312 309.316406 189.941406 309.441406 C 190.558594 309.5625 191.160156 309.746094 191.742188 309.988281 C 192.328125 310.230469 192.878906 310.523438 193.40625 310.875 C 193.929688 311.226562 194.414062 311.625 194.863281 312.070312 C 195.308594 312.515625 195.707031 313.003906 196.058594 313.527344 C 196.410156 314.050781 196.703125 314.605469 196.945312 315.191406 C 197.1875 315.773438 197.371094 316.375 197.492188 316.992188 C 197.617188 317.613281 197.679688 318.238281 197.679688 318.867188 L 197.679688 341.296875 L 213.890625 341.296875 L 213.890625 328.480469 C 213.890625 327.851562 213.953125 327.226562 214.078125 326.605469 C 214.199219 325.988281 214.382812 325.386719 214.625 324.800781 C 214.867188 324.21875 215.160156 323.664062 215.511719 323.140625 C 215.863281 322.617188 216.261719 322.128906 216.707031 321.683594 C 217.152344 321.238281 217.640625 320.839844 218.164062 320.488281 C 218.6875 320.136719 219.242188 319.839844 219.828125 319.601562 C 220.410156 319.359375 221.011719 319.175781 221.628906 319.054688 C 222.25 318.929688 222.875 318.867188 223.503906 318.867188 C 224.136719 318.867188 224.761719 318.929688 225.378906 319.054688 C 226 319.175781 226.601562 319.359375 227.183594 319.601562 C 227.765625 319.839844 228.320312 320.136719 228.847656 320.488281 C 229.371094 320.839844 229.855469 321.238281 230.300781 321.683594 C 230.75 322.128906 231.148438 322.617188 231.496094 323.140625 C 231.847656 323.664062 232.144531 324.21875 232.386719 324.800781 C 232.628906 325.386719 232.808594 325.988281 232.933594 326.605469 C 233.054688 327.226562 233.117188 327.851562 233.117188 328.480469 L 233.117188 341.296875 L 249.269531 341.296875 L 249.269531 328.480469 C 249.269531 327.851562 249.328125 327.226562 249.453125 326.605469 C 249.574219 325.988281 249.757812 325.386719 250 324.800781 C 250.242188 324.21875 250.539062 323.664062 250.886719 323.140625 C 251.238281 322.617188 251.636719 322.128906 252.082031 321.683594 C 252.53125 321.238281 253.015625 320.839844 253.539062 320.488281 C 254.066406 320.136719 254.617188 319.839844 255.203125 319.601562 C 255.785156 319.359375 256.386719 319.175781 257.003906 319.054688 C 257.625 318.929688 258.25 318.867188 258.882812 318.867188 C 259.511719 318.867188 260.136719 318.929688 260.757812 319.054688 C 261.375 319.175781 261.976562 319.359375 262.558594 319.601562 C 263.144531 319.839844 263.695312 320.136719 264.222656 320.488281 C 264.746094 320.839844 265.230469 321.238281 265.679688 321.683594 C 266.125 322.128906 266.523438 322.617188 266.875 323.140625 C 267.222656 323.664062 267.519531 324.21875 267.761719 324.800781 C 268.003906 325.386719 268.1875 325.988281 268.308594 326.605469 C 268.433594 327.226562 268.492188 327.851562 268.492188 328.480469 L 268.492188 341.296875 L 284.707031 341.296875 L 284.707031 318.867188 C 284.707031 318.238281 284.769531 317.613281 284.894531 316.992188 C 285.015625 316.375 285.199219 315.773438 285.441406 315.191406 C 285.679688 314.605469 285.976562 314.050781 286.328125 313.527344 C 286.679688 313.003906 287.078125 312.515625 287.523438 312.070312 C 287.96875 311.625 288.457031 311.226562 288.980469 310.875 C 289.503906 310.523438 290.058594 310.230469 290.640625 309.988281 C 291.226562 309.746094 291.828125 309.5625 292.445312 309.441406 C 293.066406 309.316406 293.691406 309.253906 294.320312 309.253906 C 294.953125 309.253906 295.578125 309.316406 296.195312 309.441406 C 296.816406 309.5625 297.417969 309.746094 298 309.988281 C 298.582031 310.230469 299.136719 310.523438 299.660156 310.875 C 300.1875 311.226562 300.671875 311.625 301.117188 312.070312 C 301.566406 312.515625 301.964844 313.003906 302.3125 313.527344 C 302.664062 314.050781 302.960938 314.605469 303.203125 315.191406 C 303.445312 315.773438 303.625 316.375 303.75 316.992188 C 303.871094 317.613281 303.933594 318.238281 303.933594 318.867188 L 303.933594 341.296875 L 327.644531 341.296875 C 339.820312 341.296875 345.910156 326.625 337.257812 317.972656 Z M 110.582031 264.394531 L 110.582031 180.824219 L 194.152344 264.394531 Z M 110.582031 264.394531 " fill-opacity="1" fill-rule="nonzero"/></svg>