<svg xmlns="http://www.w3.org/2000/svg" xmlns:xlink="http://www.w3.org/1999/xlink" width="500" zoomAndPan="magnify" viewBox="0 0 375 374.999991" height="500" preserveAspectRatio="xMidYMid meet" version="1.0"><path fill="#ffffff" d="M 337.355469 302.347656 L 238.769531 131.589844 L 238.769531 48.109375 L 245.179688 48.109375 C 245.808594 48.109375 246.433594 48.046875 247.054688 47.925781 C 247.671875 47.800781 248.273438 47.621094 248.859375 47.378906 C 249.441406 47.136719 249.996094 46.839844 250.519531 46.488281 C 251.042969 46.140625 251.53125 45.742188 251.976562 45.292969 C 252.421875 44.847656 252.820312 44.363281 253.171875 43.835938 C 253.523438 43.3125 253.820312 42.757812 254.058594 42.175781 C 254.300781 41.59375 254.484375 40.992188 254.605469 40.371094 C 254.730469 39.753906 254.792969 39.128906 254.792969 38.496094 C 254.792969 37.867188 254.730469 37.242188 254.605469 36.621094 C 254.484375 36.003906 254.300781 35.402344 254.058594 34.820312 C 253.820312 34.234375 253.523438 33.679688 253.171875 33.15625 C 252.820312 32.632812 252.421875 32.144531 251.976562 31.699219 C 251.53125 31.253906 251.042969 30.855469 250.519531 30.503906 C 249.996094 30.152344 249.441406 29.855469 248.859375 29.617188 C 248.273438 29.375 247.671875 29.191406 247.054688 29.070312 C 246.433594 28.945312 245.808594 28.882812 245.179688 28.882812 L 129.824219 28.882812 C 117.222656 29.089844 117.160156 47.894531 129.824219 48.109375 L 136.230469 48.109375 L 136.230469 131.589844 L 37.644531 302.347656 C 26.414062 321.800781 40.453125 346.117188 62.914062 346.117188 L 312.085938 346.117188 C 334.546875 346.117188 348.589844 321.800781 337.355469 302.347656 Z M 320.707031 321.914062 C 320.277344 322.675781 319.753906 323.367188 319.136719 323.988281 C 318.523438 324.609375 317.835938 325.140625 317.078125 325.578125 C 316.320312 326.015625 315.515625 326.347656 314.671875 326.566406 C 313.824219 326.789062 312.964844 326.898438 312.089844 326.886719 L 62.914062 326.886719 C 62.039062 326.886719 61.179688 326.773438 60.335938 326.546875 C 59.492188 326.324219 58.691406 325.992188 57.9375 325.554688 C 57.179688 325.117188 56.492188 324.589844 55.875 323.972656 C 55.257812 323.355469 54.730469 322.667969 54.292969 321.910156 C 53.855469 321.152344 53.527344 320.351562 53.300781 319.507812 C 53.074219 318.664062 52.960938 317.804688 52.960938 316.933594 C 52.960938 316.058594 53.074219 315.199219 53.300781 314.355469 C 53.527344 313.511719 53.859375 312.710938 54.296875 311.957031 L 111.054688 213.644531 C 118.726562 216.5 127.921875 218.488281 140.59375 218.488281 C 164.03125 218.488281 175.753906 211.808594 187.472656 205.125 C 199.191406 198.441406 210.910156 191.757812 234.347656 191.757812 C 240.367188 191.726562 246.332031 192.265625 252.246094 193.382812 L 320.707031 311.957031 C 321.152344 312.710938 321.488281 313.511719 321.71875 314.355469 C 321.953125 315.199219 322.066406 316.058594 322.066406 316.9375 C 322.066406 317.8125 321.953125 318.671875 321.71875 319.515625 C 321.488281 320.359375 321.152344 321.160156 320.707031 321.914062 Z M 320.707031 321.914062 " fill-opacity="1" fill-rule="nonzero"/><path fill="#ffffff" d="M 159.683594 298.050781 C 159.96875 314.894531 185.03125 314.898438 185.316406 298.050781 C 185.035156 281.207031 159.96875 281.203125 159.683594 298.050781 Z M 159.683594 298.050781 " fill-opacity="1" fill-rule="nonzero"/><path fill="#ffffff" d="M 108.414062 259.597656 C 108.699219 276.445312 133.761719 276.445312 134.046875 259.597656 C 133.765625 242.753906 108.699219 242.75 108.414062 259.597656 Z M 108.414062 259.597656 " fill-opacity="1" fill-rule="nonzero"/><path fill="#ffffff" d="M 229.15625 240.371094 C 229.441406 257.21875 254.503906 257.21875 254.789062 240.371094 C 254.507812 223.527344 229.441406 223.523438 229.15625 240.371094 Z M 229.15625 240.371094 " fill-opacity="1" fill-rule="nonzero"/></svg>