<svg xmlns="http://www.w3.org/2000/svg" xmlns:xlink="http://www.w3.org/1999/xlink" width="500" zoomAndPan="magnify" viewBox="0 0 375 374.999991" height="500" preserveAspectRatio="xMidYMid meet" version="1.0"><defs><g/><clipPath id="85c27331d9"><path d="M 69.652344 69.652344 L 305.152344 69.652344 L 305.152344 305.152344 L 69.652344 305.152344 Z M 69.652344 69.652344 " clip-rule="nonzero"/></clipPath><clipPath id="106648fbc7"><path d="M 187.496094 69.652344 C 122.414062 69.652344 69.652344 122.414062 69.652344 187.496094 C 69.652344 252.582031 122.414062 305.339844 187.496094 305.339844 C 252.582031 305.339844 305.339844 252.582031 305.339844 187.496094 C 305.339844 122.414062 252.582031 69.652344 187.496094 69.652344 Z M 187.496094 69.652344 " clip-rule="nonzero"/></clipPath><clipPath id="cedc2c18d2"><path d="M 122.324219 122.324219 L 252.671875 122.324219 L 252.671875 252.671875 L 122.324219 252.671875 Z M 122.324219 122.324219 " clip-rule="nonzero"/></clipPath><clipPath id="3fc415f8e8"><path d="M 187.496094 122.324219 C 151.503906 122.324219 122.324219 151.503906 122.324219 187.496094 C 122.324219 223.492188 151.503906 252.671875 187.496094 252.671875 C 223.492188 252.671875 252.671875 223.492188 252.671875 187.496094 C 252.671875 151.503906 223.492188 122.324219 187.496094 122.324219 Z M 187.496094 122.324219 " clip-rule="nonzero"/></clipPath><clipPath id="7d13108d11"><path d="M 143.035156 153 L 232 153 L 232 224.816406 L 143.035156 224.816406 Z M 143.035156 153 " clip-rule="nonzero"/></clipPath><clipPath id="6f884edd44"><path d="M 137.632812 260.203125 L 152.632812 260.203125 L 152.632812 274.453125 L 137.632812 274.453125 Z M 137.632812 260.203125 " clip-rule="nonzero"/></clipPath><clipPath id="8bfe0c7783"><path d="M 222.328125 260.203125 L 237.328125 260.203125 L 237.328125 274.453125 L 222.328125 274.453125 Z M 222.328125 260.203125 " clip-rule="nonzero"/></clipPath><clipPath id="e2587e6977"><path d="M 180 272.5 L 194.980469 272.5 L 194.980469 286.75 L 180 286.75 Z M 180 272.5 " clip-rule="nonzero"/></clipPath><clipPath id="96b5530137"><path d="M 179.980469 272.5 L 194.980469 272.5 L 194.980469 286.75 L 179.980469 286.75 Z M 179.980469 272.5 " clip-rule="nonzero"/></clipPath></defs><g clip-path="url(#85c27331d9)"><g clip-path="url(#106648fbc7)"><path stroke-linecap="butt" transform="matrix(0.75, 0, 0, 0.75, 69.653285, 69.65328)" fill="none" stroke-linejoin="miter" d="M 157.123756 -0.00124863 C 70.347708 -0.00124863 -0.00125463 70.347714 -0.00125463 157.123762 C -0.00125463 243.905017 70.347708 314.248772 157.123756 314.248772 C 243.905011 314.248772 314.248766 243.905017 314.248766 157.123762 C 314.248766 70.347714 243.905011 -0.00124863 157.123756 -0.00124863 Z M 157.123756 -0.00124863 " stroke="#ffffff" stroke-width="6" stroke-opacity="1" stroke-miterlimit="4"/></g></g><g fill="#ffffff" fill-opacity="1"><g transform="translate(131.411193, 251.496717)"><g><path d="M -14.046875 -7.9375 L -7.71875 -0.78125 L -2.4375 -2.75 L -0.78125 -0.875 L -20.703125 6.546875 L -23 3.9375 L -13.203125 -14.921875 L -11.4375 -12.9375 Z M -15.09375 -5.90625 L -20.171875 3.828125 L -9.859375 0 Z M -15.09375 -5.90625 "/></g></g></g><g fill="#ffffff" fill-opacity="1"><g transform="translate(116.575656, 234.352286)"><g><path d="M -4.890625 -10.75 C -4.046875 -9.03125 -3.707031 -7.378906 -3.875 -5.796875 C -4.050781 -4.210938 -4.679688 -2.773438 -5.765625 -1.484375 C -6.859375 -0.203125 -8.328125 0.890625 -10.171875 1.796875 C -12.015625 2.691406 -13.773438 3.171875 -15.453125 3.234375 C -17.128906 3.304688 -18.644531 2.929688 -20 2.109375 C -21.363281 1.285156 -22.46875 0.015625 -23.3125 -1.703125 C -23.769531 -2.640625 -24.097656 -3.597656 -24.296875 -4.578125 C -24.492188 -5.566406 -24.546875 -6.53125 -24.453125 -7.46875 L -21.890625 -8.71875 L -21.84375 -8.609375 C -22.113281 -7.785156 -22.203125 -6.863281 -22.109375 -5.84375 C -22.023438 -4.820312 -21.738281 -3.8125 -21.25 -2.8125 C -20.300781 -0.863281 -18.972656 0.253906 -17.265625 0.546875 C -15.554688 0.835938 -13.59375 0.441406 -11.375 -0.640625 C -9.144531 -1.742188 -7.617188 -3.054688 -6.796875 -4.578125 C -5.984375 -6.109375 -6.046875 -7.835938 -6.984375 -9.765625 C -7.460938 -10.742188 -8.070312 -11.582031 -8.8125 -12.28125 C -9.5625 -12.988281 -10.375 -13.5 -11.25 -13.8125 L -11.296875 -13.921875 L -8.734375 -15.171875 C -7.941406 -14.671875 -7.21875 -14.039062 -6.5625 -13.28125 C -5.90625 -12.53125 -5.347656 -11.6875 -4.890625 -10.75 Z M -4.890625 -10.75 "/></g></g></g><g fill="#ffffff" fill-opacity="1"><g transform="translate(106.998475, 214.433274)"><g><path d="M -8 -14 L -6.21875 -4.625 L -0.6875 -3.609375 L -0.21875 -1.15625 L -21.140625 -4.953125 L -21.796875 -8.359375 L -3.71875 -19.578125 L -3.234375 -16.96875 Z M -9.953125 -12.796875 L -19.28125 -7 L -8.46875 -5.046875 Z M -9.953125 -12.796875 "/></g></g></g><g fill="#ffffff" fill-opacity="1"><g transform="translate(102.891495, 192.160207)"><g><path d="M -18.84375 -12 C -18.582031 -14.925781 -17.507812 -17.085938 -15.625 -18.484375 C -13.738281 -19.878906 -11.242188 -20.4375 -8.140625 -20.15625 C -5.046875 -19.875 -2.695312 -18.878906 -1.09375 -17.171875 C 0.507812 -15.460938 1.179688 -13.144531 0.921875 -10.21875 L 0.3125 -3.546875 L -19.453125 -5.328125 Z M -1.4375 -10.625 C -1.257812 -12.675781 -1.789062 -14.273438 -3.03125 -15.421875 C -4.269531 -16.578125 -6.054688 -17.257812 -8.390625 -17.46875 C -10.722656 -17.675781 -12.601562 -17.320312 -14.03125 -16.40625 C -15.457031 -15.5 -16.257812 -14.019531 -16.4375 -11.96875 L -16.828125 -7.609375 L -1.828125 -6.265625 Z M -1.4375 -10.625 "/></g></g></g><g fill="#ffffff" fill-opacity="1"><g transform="translate(105.492346, 168.497916)"><g><path d="M -14.28125 -11.703125 L -8.390625 -9.546875 L -5.40625 -17.703125 L -3.265625 -16.921875 L -6.25 -8.765625 L -0.15625 -6.53125 L 3.046875 -15.28125 L 5.296875 -14.453125 L 1.21875 -3.34375 L -17.40625 -10.171875 L -13.328125 -21.28125 L -11.078125 -20.453125 Z M -14.28125 -11.703125 "/></g></g></g><g fill="#ffffff" fill-opacity="1"><g transform="translate(111.857032, 149.724766)"><g><path d="M 14.65625 -19.484375 L 13.140625 -17.46875 L -0.984375 -28.09375 L 9.25 -12.296875 L 7.609375 -10.109375 L -10.375 -15.421875 L 3.65625 -4.859375 L 2.140625 -2.84375 L -13.71875 -14.78125 L -11.078125 -18.296875 L 5.671875 -13.359375 L -3.796875 -27.96875 L -1.203125 -31.421875 Z M 14.65625 -19.484375 "/></g></g></g><g fill="#ffffff" fill-opacity="1"><g transform="translate(130.649441, 126.965613)"><g><path d="M -9.96875 -17.484375 L -8.03125 -19.0625 L 4.5 -3.671875 L 2.5625 -2.09375 Z M -9.96875 -17.484375 "/></g></g></g><g fill="#ffffff" fill-opacity="1"><g transform="translate(138.97166, 119.654982)"><g><path d="M 11.109375 -11.6875 L 2.640625 -7.28125 L 3.265625 -1.6875 L 1.046875 -0.546875 L -1.34375 -21.671875 L 1.734375 -23.28125 L 17.671875 -9.1875 L 15.3125 -7.96875 Z M 9.390625 -13.203125 L 1.15625 -20.5 L 2.390625 -9.5625 Z M 9.390625 -13.203125 "/></g></g></g><g fill="#ffffff" fill-opacity="1"><g transform="translate(159.708956, 109.808945)"><g/></g></g><g fill="#ffffff" fill-opacity="1"><g transform="translate(169.111358, 106.535768)"><g><path d="M 8.6875 -20.578125 C 11.613281 -20.804688 13.921875 -20.109375 15.609375 -18.484375 C 17.296875 -16.859375 18.265625 -14.492188 18.515625 -11.390625 C 18.753906 -8.285156 18.164062 -5.800781 16.75 -3.9375 C 15.332031 -2.070312 13.160156 -1.023438 10.234375 -0.796875 L 3.546875 -0.28125 L 2 -20.0625 Z M 10.234375 -3.203125 C 12.273438 -3.359375 13.757812 -4.144531 14.6875 -5.5625 C 15.625 -6.976562 16.003906 -8.851562 15.828125 -11.1875 C 15.640625 -13.507812 14.972656 -15.296875 13.828125 -16.546875 C 12.691406 -17.804688 11.101562 -18.359375 9.0625 -18.203125 L 4.703125 -17.859375 L 5.875 -2.859375 Z M 10.234375 -3.203125 "/></g></g></g><g fill="#ffffff" fill-opacity="1"><g transform="translate(192.879677, 105.150015)"><g><path d="M 9.15625 -16.03125 L 8.015625 -9.875 L 16.5625 -8.28125 L 16.140625 -6.03125 L 7.59375 -7.625 L 6.40625 -1.234375 L 15.5625 0.46875 L 15.125 2.8125 L 3.5 0.65625 L 7.125 -18.859375 L 18.75 -16.703125 L 18.3125 -14.328125 Z M 9.15625 -16.03125 "/></g></g></g><g fill="#ffffff" fill-opacity="1"><g transform="translate(212.617309, 109.474211)"><g/></g></g><g fill="#ffffff" fill-opacity="1"><g transform="translate(222.082268, 112.684738)"><g><path d="M 17.875 -1.03125 C 19.039062 0.65625 19.003906 2.5 17.765625 4.5 C 16.742188 6.132812 15.484375 7.007812 13.984375 7.125 C 12.492188 7.238281 10.804688 6.710938 8.921875 5.546875 L 3.03125 1.875 L 13.515625 -14.96875 L 19.59375 -11.1875 C 21.226562 -10.164062 22.269531 -9.007812 22.71875 -7.71875 C 23.175781 -6.425781 22.941406 -5.046875 22.015625 -3.578125 C 20.960938 -1.867188 19.582031 -1.019531 17.875 -1.03125 Z M 14.359375 -11.609375 L 11.125 -6.40625 L 14.8125 -4.109375 C 15.925781 -3.421875 16.851562 -3.125 17.59375 -3.21875 C 18.332031 -3.3125 19.019531 -3.867188 19.65625 -4.890625 C 20.238281 -5.828125 20.394531 -6.625 20.125 -7.28125 C 19.851562 -7.945312 19.160156 -8.625 18.046875 -9.3125 Z M 10.1875 3.515625 C 11.46875 4.304688 12.507812 4.679688 13.3125 4.640625 C 14.113281 4.609375 14.851562 4.054688 15.53125 2.984375 C 16.195312 1.898438 16.363281 0.984375 16.03125 0.234375 C 15.707031 -0.515625 14.898438 -1.289062 13.609375 -2.09375 L 9.890625 -4.40625 L 6.421875 1.171875 Z M 10.1875 3.515625 "/></g></g></g><g fill="#ffffff" fill-opacity="1"><g transform="translate(240.382958, 123.998433)"><g><path d="M 7.765625 9.125 C 6.484375 7.695312 5.703125 6.191406 5.421875 4.609375 C 5.140625 3.023438 5.332031 1.457031 6 -0.09375 C 6.664062 -1.65625 7.765625 -3.125 9.296875 -4.5 C 10.816406 -5.875 12.382812 -6.8125 14 -7.3125 C 15.625 -7.820312 17.207031 -7.851562 18.75 -7.40625 C 20.300781 -6.96875 21.71875 -6.035156 23 -4.609375 C 24.28125 -3.179688 25.054688 -1.675781 25.328125 -0.09375 C 25.609375 1.476562 25.414062 3.039062 24.75 4.59375 C 24.082031 6.15625 22.988281 7.625 21.46875 9 C 19.9375 10.375 18.359375 11.3125 16.734375 11.8125 C 15.117188 12.320312 13.539062 12.359375 12 11.921875 C 10.457031 11.484375 9.046875 10.550781 7.765625 9.125 Z M 9.453125 7.59375 C 10.867188 9.175781 12.46875 9.882812 14.25 9.71875 C 16.03125 9.550781 17.835938 8.644531 19.671875 7 C 21.484375 5.363281 22.5625 3.664062 22.90625 1.90625 C 23.257812 0.15625 22.726562 -1.507812 21.3125 -3.09375 C 19.882812 -4.675781 18.28125 -5.378906 16.5 -5.203125 C 14.726562 -5.023438 12.9375 -4.117188 11.125 -2.484375 C 9.289062 -0.835938 8.195312 0.851562 7.84375 2.59375 C 7.488281 4.34375 8.023438 6.007812 9.453125 7.59375 Z M 9.453125 7.59375 "/></g></g></g><g fill="#ffffff" fill-opacity="1"><g transform="translate(257.040735, 143.210486)"><g><path d="M 6.53125 13.4375 L 11.78125 6.421875 L 11.640625 6.15625 L 9.65625 2.0625 L 2.65625 5.46875 L 1.5625 3.203125 L 19.40625 -5.46875 L 22.34375 0.578125 C 23.375 2.710938 23.691406 4.519531 23.296875 6 C 22.910156 7.476562 21.859375 8.632812 20.140625 9.46875 C 18.859375 10.09375 17.632812 10.335938 16.46875 10.203125 C 15.3125 10.078125 14.273438 9.5625 13.359375 8.65625 L 7.84375 16.140625 Z M 13.640625 4.84375 C 14.285156 6.175781 15.019531 7.023438 15.84375 7.390625 C 16.664062 7.765625 17.703125 7.648438 18.953125 7.046875 C 20.097656 6.492188 20.753906 5.789062 20.921875 4.9375 C 21.085938 4.082031 20.84375 2.976562 20.1875 1.625 L 18.34375 -2.15625 L 11.78125 1.03125 Z M 13.640625 4.84375 "/></g></g></g><g fill="#ffffff" fill-opacity="1"><g transform="translate(266.316814, 162.676049)"><g><path d="M 1.890625 11.640625 C 1.523438 9.765625 1.632812 8.085938 2.21875 6.609375 C 2.8125 5.128906 3.800781 3.910156 5.1875 2.953125 C 6.570312 2.003906 8.269531 1.332031 10.28125 0.9375 C 12.300781 0.550781 14.128906 0.539062 15.765625 0.90625 C 17.410156 1.28125 18.773438 2.046875 19.859375 3.203125 C 20.953125 4.359375 21.679688 5.875 22.046875 7.75 C 22.242188 8.769531 22.304688 9.78125 22.234375 10.78125 C 22.171875 11.789062 21.972656 12.734375 21.640625 13.609375 L 18.84375 14.15625 L 18.828125 14.046875 C 19.304688 13.316406 19.632812 12.445312 19.8125 11.4375 C 20 10.425781 19.984375 9.375 19.765625 8.28125 C 19.359375 6.15625 18.367188 4.726562 16.796875 4 C 15.222656 3.269531 13.222656 3.132812 10.796875 3.59375 C 8.359375 4.070312 6.546875 4.941406 5.359375 6.203125 C 4.171875 7.472656 3.78125 9.160156 4.1875 11.265625 C 4.394531 12.328125 4.765625 13.296875 5.296875 14.171875 C 5.828125 15.046875 6.472656 15.75 7.234375 16.28125 L 7.25 16.390625 L 4.46875 16.9375 C 3.832031 16.25 3.289062 15.445312 2.84375 14.53125 C 2.40625 13.625 2.085938 12.660156 1.890625 11.640625 Z M 1.890625 11.640625 "/></g></g></g><g fill="#ffffff" fill-opacity="1"><g transform="translate(270.178266, 184.493306)"><g><path d="M 17.03125 7.125 L 10.78125 6.75 L 10.25 15.421875 L 7.96875 15.28125 L 8.5 6.609375 L 2.015625 6.203125 L 1.453125 15.5 L -0.9375 15.359375 L -0.21875 3.5625 L 19.59375 4.78125 L 18.875 16.578125 L 16.46875 16.421875 Z M 17.03125 7.125 "/></g></g></g><g fill="#ffffff" fill-opacity="1"><g transform="translate(268.664919, 204.42056)"><g><path d="M 18 9.09375 L 17.28125 11.515625 L 0.5625 6.515625 L -2 15.078125 L -4.296875 14.390625 L -1.015625 3.40625 Z M 18 9.09375 "/></g></g></g><g fill="#ffffff" fill-opacity="1"><g transform="translate(263.22098, 221.929742)"><g><path d="M 15.578125 12.8125 L 14.34375 15 L -0.890625 6.46875 L -5.265625 14.265625 L -7.34375 13.09375 L -1.734375 3.109375 Z M 15.578125 12.8125 "/></g></g></g><g fill="#ffffff" fill-opacity="1"><g transform="translate(254.180167, 237.84717)"><g><path d="M 8.78125 16.25 L 4.15625 12.015625 L -1.703125 18.4375 L -3.390625 16.90625 L 2.46875 10.484375 L -2.328125 6.09375 L -8.609375 12.96875 L -10.375 11.359375 L -2.40625 2.625 L 12.25 16.015625 L 4.28125 24.75 L 2.5 23.125 Z M 8.78125 16.25 "/></g></g></g><g clip-path="url(#cedc2c18d2)"><g clip-path="url(#3fc415f8e8)"><path stroke-linecap="butt" transform="matrix(0.75, 0, 0, 0.75, 122.324197, 122.324193)" fill="none" stroke-linejoin="miter" d="M 86.895868 0.0000346435 C 38.906281 0.0000346435 0.0000286435 38.906287 0.0000286435 86.895874 C 0.0000286435 134.890669 38.906281 173.796921 86.895868 173.796921 C 134.890663 173.796921 173.796915 134.890669 173.796915 86.895874 C 173.796915 38.906287 134.890663 0.0000346435 86.895868 0.0000346435 Z M 86.895868 0.0000346435 " stroke="#ffffff" stroke-width="6" stroke-opacity="1" stroke-miterlimit="4"/></g></g><g clip-path="url(#7d13108d11)"><path fill="#ffffff" d="M 151.707031 161.617188 C 151.707031 159.398438 151.753906 157.324219 151.683594 155.25 C 151.660156 153.605469 152.351562 152.816406 153.972656 153.054688 C 160.4375 153.960938 167.019531 154.4375 173.316406 155.988281 C 179.46875 157.515625 184.382812 161.378906 187.410156 167.460938 C 192.921875 157.515625 202.246094 154.84375 212.289062 153.582031 C 215.175781 153.222656 218.109375 153.246094 221.019531 153.054688 C 222.6875 152.9375 223.308594 153.675781 223.238281 155.320312 C 223.140625 157.398438 223.214844 159.472656 223.214844 161.667969 C 225.574219 162.023438 227.722656 162.40625 229.867188 162.644531 C 231.296875 162.8125 231.941406 163.40625 231.917969 164.910156 C 231.894531 181.488281 231.894531 198.0625 231.917969 214.664062 C 231.917969 216.691406 230.964844 216.8125 229.320312 216.570312 C 220.519531 215.1875 211.742188 215.046875 203.035156 217.453125 C 197.882812 218.886719 193.160156 221.054688 188.9375 224.417969 C 188.34375 224.894531 186.792969 225.0625 186.265625 224.65625 C 176.964844 217.238281 166.113281 215.332031 154.664062 215.714844 C 151.585938 215.808594 148.484375 216.191406 145.433594 216.644531 C 143.738281 216.90625 143.046875 216.429688 143.070312 214.734375 C 143.097656 198.160156 143.097656 181.582031 143.070312 164.980469 C 143.070312 163.503906 143.621094 162.859375 145.097656 162.691406 C 147.222656 162.382812 149.34375 162 151.707031 161.617188 Z M 153.925781 205.21875 C 166.015625 205.765625 177.824219 206.699219 186.480469 217.527344 C 186.480469 216.046875 186.480469 215.1875 186.480469 214.332031 C 186.480469 201.042969 186.410156 187.757812 186.53125 174.472656 C 186.578125 169.539062 184.742188 165.554688 181.019531 162.546875 C 173.125 156.085938 163.679688 155.371094 153.925781 155.15625 C 153.925781 171.96875 153.925781 188.402344 153.925781 205.21875 Z M 220.875 205.21875 C 220.875 188.355469 220.875 171.828125 220.875 155.296875 C 212.242188 154.75 202.269531 156.894531 196.476562 160.59375 C 191.300781 163.90625 188.367188 168.34375 188.460938 174.832031 C 188.652344 187.855469 188.507812 200.902344 188.507812 213.925781 C 188.507812 214.949219 188.507812 215.953125 188.507812 217.480469 C 197.191406 206.675781 208.949219 205.792969 220.875 205.21875 Z M 223.1875 163.8125 C 223.1875 165.21875 223.1875 166.199219 223.1875 167.175781 C 223.1875 179.554688 223.117188 191.957031 223.238281 204.335938 C 223.261719 206.769531 222.496094 207.4375 220.136719 207.4375 C 216.605469 207.460938 213.027344 207.699219 209.523438 208.222656 C 203.226562 209.179688 197.238281 211.0625 192.683594 215.855469 C 191.324219 217.265625 190.371094 219.054688 189.222656 220.675781 C 201.960938 212.945312 215.53125 212.515625 229.605469 214.332031 C 229.605469 197.683594 229.605469 181.25 229.605469 164.648438 C 227.53125 164.386719 225.550781 164.121094 223.1875 163.8125 Z M 185.574219 220.675781 C 184.714844 219.363281 184.121094 217.71875 182.953125 216.761719 C 180.304688 214.59375 177.585938 212.375 174.53125 210.894531 C 168.617188 208.035156 162.105469 207.582031 155.617188 207.414062 C 151.730469 207.316406 151.707031 207.292969 151.707031 203.261719 C 151.707031 191.148438 151.707031 179.03125 151.707031 166.914062 C 151.707031 165.933594 151.707031 164.980469 151.707031 163.933594 C 150.679688 163.980469 150.035156 163.980469 149.394531 164.074219 C 145.097656 164.625 145.097656 164.625 145.097656 168.894531 C 145.097656 183.011719 145.097656 197.132812 145.097656 211.253906 C 145.097656 212.207031 145.097656 213.160156 145.097656 214.378906 C 159.410156 212.515625 172.957031 212.96875 185.574219 220.675781 Z M 185.574219 220.675781 " fill-opacity="1" fill-rule="nonzero"/></g><g clip-path="url(#6f884edd44)"><path fill="#ffffff" d="M 145.152344 260.253906 L 147.460938 264.925781 L 152.632812 265.675781 L 148.890625 269.3125 L 149.773438 274.449219 L 145.152344 272.023438 L 140.523438 274.449219 L 141.40625 269.3125 L 137.667969 265.675781 L 142.835938 264.925781 Z M 145.152344 260.253906 " fill-opacity="1" fill-rule="nonzero"/><path fill="#ffffff" d="M 145.113281 260.207031 L 147.429688 264.878906 L 152.597656 265.628906 L 148.855469 269.269531 L 149.738281 274.40625 L 145.113281 271.980469 L 140.488281 274.40625 L 141.371094 269.269531 L 137.632812 265.628906 L 142.800781 264.878906 Z M 145.113281 260.207031 " fill-opacity="1" fill-rule="nonzero"/><path fill="#ffffff" d="M 145.113281 260.207031 L 147.429688 264.878906 L 152.597656 265.628906 L 148.855469 269.269531 L 149.738281 274.40625 L 145.113281 271.980469 L 140.488281 274.40625 L 141.371094 269.269531 L 137.632812 265.628906 L 142.800781 264.878906 Z M 145.113281 260.207031 " fill-opacity="1" fill-rule="nonzero"/><path fill="#ffffff" d="M 145.113281 260.207031 L 147.429688 264.878906 L 152.597656 265.628906 L 148.855469 269.269531 L 149.738281 274.40625 L 145.113281 271.980469 L 140.488281 274.40625 L 141.371094 269.269531 L 137.632812 265.628906 L 142.800781 264.878906 Z M 145.113281 260.207031 " fill-opacity="1" fill-rule="nonzero"/></g><g clip-path="url(#8bfe0c7783)"><path fill="#ffffff" d="M 229.847656 260.253906 L 232.160156 264.925781 L 237.328125 265.675781 L 233.585938 269.3125 L 234.472656 274.449219 L 229.847656 272.023438 L 225.222656 274.449219 L 226.105469 269.3125 L 222.367188 265.675781 L 227.535156 264.925781 Z M 229.847656 260.253906 " fill-opacity="1" fill-rule="nonzero"/><path fill="#ffffff" d="M 229.8125 260.207031 L 232.128906 264.878906 L 237.296875 265.628906 L 233.554688 269.269531 L 234.4375 274.40625 L 229.8125 271.980469 L 225.1875 274.40625 L 226.070312 269.269531 L 222.328125 265.628906 L 227.5 264.878906 Z M 229.8125 260.207031 " fill-opacity="1" fill-rule="nonzero"/><path fill="#ffffff" d="M 229.8125 260.207031 L 232.128906 264.878906 L 237.296875 265.628906 L 233.554688 269.269531 L 234.4375 274.40625 L 229.8125 271.980469 L 225.1875 274.40625 L 226.070312 269.269531 L 222.328125 265.628906 L 227.5 264.878906 Z M 229.8125 260.207031 " fill-opacity="1" fill-rule="nonzero"/><path fill="#ffffff" d="M 229.8125 260.207031 L 232.128906 264.878906 L 237.296875 265.628906 L 233.554688 269.269531 L 234.4375 274.40625 L 229.8125 271.980469 L 225.1875 274.40625 L 226.070312 269.269531 L 222.328125 265.628906 L 227.5 264.878906 Z M 229.8125 260.207031 " fill-opacity="1" fill-rule="nonzero"/></g><g clip-path="url(#e2587e6977)"><path fill="#ffffff" d="M 187.5 272.550781 L 189.8125 277.222656 L 194.980469 277.972656 L 191.238281 281.609375 L 192.125 286.746094 L 187.5 284.320312 L 182.871094 286.746094 L 183.753906 281.609375 L 180.015625 277.972656 L 185.1875 277.222656 Z M 187.5 272.550781 " fill-opacity="1" fill-rule="nonzero"/></g><g clip-path="url(#96b5530137)"><path fill="#ffffff" d="M 187.464844 272.503906 L 189.777344 277.175781 L 194.949219 277.925781 L 191.207031 281.566406 L 192.089844 286.699219 L 187.464844 284.277344 L 182.839844 286.699219 L 183.722656 281.566406 L 179.980469 277.925781 L 185.148438 277.175781 Z M 187.464844 272.503906 " fill-opacity="1" fill-rule="nonzero"/><path fill="#ffffff" d="M 187.464844 272.503906 L 189.777344 277.175781 L 194.949219 277.925781 L 191.207031 281.566406 L 192.089844 286.699219 L 187.464844 284.277344 L 182.839844 286.699219 L 183.722656 281.566406 L 179.980469 277.925781 L 185.148438 277.175781 Z M 187.464844 272.503906 " fill-opacity="1" fill-rule="nonzero"/><path fill="#ffffff" d="M 187.464844 272.503906 L 189.777344 277.175781 L 194.949219 277.925781 L 191.207031 281.566406 L 192.089844 286.699219 L 187.464844 284.277344 L 182.839844 286.699219 L 183.722656 281.566406 L 179.980469 277.925781 L 185.148438 277.175781 Z M 187.464844 272.503906 " fill-opacity="1" fill-rule="nonzero"/></g></svg>